<!DOCTYPE svg PUBLIC "-//W3C//DTD SVG 20010904//EN" "http://www.w3.org/TR/2001/REC-SVG-20010904/DTD/svg10.dtd">
<svg version="1.0" xmlns="http://www.w3.org/2000/svg" width="312px" height="150px" viewBox="0 0 3120 1500" preserveAspectRatio="xMidYMid meet">
<g id="layer101" fill="#0f1111" stroke="none">
 <path d="M0 750 l0 -750 1560 0 1560 0 0 750 0 750 -1560 0 -1560 0 0 -750z"/>
 </g>
<g id="layer102" fill="#bb661c" stroke="none">
 <path d="M0 750 l0 -750 1560 0 1560 0 0 750 0 750 -1560 0 -1560 0 0 -750z m1230 248 c0 -7 3 -23 6 -35 6 -22 4 -23 -76 -23 -71 0 -81 -2 -76 -16 3 -9 6 -22 6 -30 0 -11 17 -14 75 -14 41 0 75 -3 75 -7 0 -5 3 -18 6 -30 6 -22 4 -23 -65 -23 -70 0 -77 -3 -65 -34 5 -13 22 -16 85 -16 62 0 79 -3 79 -14 0 -8 3 -21 6 -30 5 -14 -9 -16 -119 -16 l-124 0 -16 68 c-21 83 -47 210 -47 223 0 5 54 9 125 9 93 0 125 -3 125 -12z m215 -85 c10 -54 22 -102 26 -107 5 -6 9 36 9 97 l0 107 35 0 c35 0 36 -1 90 -112 30 -62 55 -110 55 -107 0 3 -9 45 -20 95 -27 123 -27 124 14 124 34 0 35 -1 46 -57 7 -32 20 -95 31 -141 10 -45 19 -87 19 -92 0 -6 -27 -10 -59 -10 l-59 0 -45 93 -45 92 -1 -93 -1 -93 -62 3 -63 3 -20 87 c-11 48 -24 90 -28 95 -5 4 -5 0 -1 -10 5 -15 -1 -17 -55 -17 -46 0 -61 3 -61 14 0 8 -3 22 -6 31 -6 15 1 16 59 13 56 -2 66 -1 62 12 -20 69 -20 70 22 70 l40 0 18 -97z m370 75 c3 -13 16 -71 30 -130 35 -149 35 -148 -19 -148 l-44 0 -7 43 c-4 23 -18 88 -31 143 -13 56 -24 105 -24 108 0 3 20 6 45 6 38 0 45 -3 50 -22z m134 -56 c7 -40 18 -71 23 -70 5 2 24 36 41 76 l32 72 41 0 c50 0 46 6 80 -152 14 -65 27 -125 31 -133 4 -12 -4 -15 -40 -15 l-45 0 -17 75 c-9 41 -19 75 -21 75 -3 0 -21 -34 -40 -75 l-35 -75 -44 0 c-38 0 -45 3 -50 23 -34 152 -55 252 -55 264 0 10 11 13 42 11 l43 -3 14 -73z m339 -64 c18 -79 32 -146 32 -150 0 -8 -90 -11 -90 -3 0 2 -13 65 -30 138 -16 74 -30 140 -30 146 0 6 18 11 43 11 l43 0 32 -142z m97 103 c3 -21 12 -58 19 -82 l14 -44 37 83 38 82 43 0 c40 0 43 -2 49 -32 4 -18 15 -69 25 -113 10 -44 22 -97 26 -118 l6 -38 -43 3 -43 3 -14 65 c-8 36 -17 68 -21 73 -4 4 -22 -27 -41 -68 l-33 -76 -46 3 c-43 3 -46 5 -53 38 -15 74 -49 226 -54 243 -5 14 1 17 39 17 45 0 45 -1 52 -39z m474 18 c45 -19 49 -24 59 -70 19 -81 21 -79 -58 -79 -54 0 -70 3 -70 14 0 8 -3 21 -6 30 -5 13 1 16 25 16 44 0 40 26 -5 39 -23 6 -45 6 -61 0 -24 -9 -25 -13 -21 -64 6 -68 35 -105 84 -105 19 0 37 6 42 15 6 12 18 14 50 9 35 -5 42 -10 42 -29 0 -33 -31 -55 -86 -61 -106 -13 -186 36 -218 134 -23 68 -15 113 25 146 40 34 127 36 198 5z"/>
 </g>
<g id="layer103" fill="#d46e18" stroke="none">
 <path d="M0 750 l0 -750 1560 0 1560 0 0 750 0 750 -1560 0 -1560 0 0 -750z m1230 248 c0 -7 3 -23 6 -35 6 -22 4 -23 -76 -23 -71 0 -81 -2 -76 -16 3 -9 6 -22 6 -30 0 -11 17 -14 75 -14 41 0 75 -3 75 -7 0 -5 3 -18 6 -30 6 -22 4 -23 -65 -23 -70 0 -77 -3 -65 -34 5 -13 22 -16 84 -16 77 0 78 0 83 -27 3 -16 4 -29 4 -30 -1 -1 -56 -3 -122 -4 l-120 -3 -13 50 c-15 58 -52 232 -52 245 0 5 56 9 125 9 93 0 125 -3 125 -12z m215 -85 c10 -54 22 -102 26 -107 5 -6 9 36 9 97 l0 107 35 0 c35 0 36 -1 90 -112 30 -62 55 -110 55 -107 0 3 -9 45 -20 95 -27 123 -27 124 14 124 34 0 35 -1 46 -57 7 -32 20 -95 31 -141 10 -45 19 -87 19 -92 0 -6 -27 -10 -59 -10 l-59 0 -45 93 -45 92 -1 -93 -1 -93 -62 3 -63 3 -20 87 c-11 48 -24 90 -28 95 -5 4 -5 0 -1 -10 5 -15 -1 -17 -55 -17 -46 0 -61 3 -61 14 0 8 -3 22 -6 31 -6 15 1 16 59 13 56 -2 66 -1 62 12 -20 69 -20 70 22 70 l40 0 18 -97z m370 75 c3 -13 16 -71 30 -130 35 -149 35 -148 -19 -148 l-44 0 -7 43 c-4 23 -18 88 -31 143 -13 56 -24 105 -24 108 0 3 20 6 45 6 38 0 45 -3 50 -22z m134 -56 c7 -40 18 -71 23 -70 5 2 24 36 41 76 l32 72 41 0 c50 0 46 6 80 -152 14 -65 27 -125 31 -133 4 -12 -4 -15 -40 -15 l-45 0 -17 75 c-9 41 -19 75 -21 75 -3 0 -21 -34 -40 -75 l-35 -75 -44 0 c-38 0 -45 3 -50 23 -34 152 -55 252 -55 264 0 10 11 13 42 11 l43 -3 14 -73z m339 -64 c18 -79 32 -146 32 -150 0 -8 -90 -11 -90 -3 0 2 -13 65 -30 138 -16 74 -30 140 -30 146 0 6 18 11 43 11 l43 0 32 -142z m97 103 c3 -21 12 -58 19 -82 l14 -44 37 83 38 82 43 0 c40 0 43 -2 49 -32 4 -18 15 -69 25 -113 10 -44 22 -97 26 -118 l6 -38 -43 3 -43 3 -14 65 c-8 36 -17 68 -21 73 -4 4 -22 -27 -41 -68 l-33 -76 -46 3 c-43 3 -46 5 -53 38 -15 74 -49 226 -54 243 -5 14 1 17 39 17 45 0 45 -1 52 -39z m474 18 c45 -19 49 -24 59 -70 19 -81 21 -79 -58 -79 -54 0 -70 3 -70 14 0 8 -3 21 -6 30 -5 13 1 16 25 16 44 0 40 26 -5 39 -23 6 -45 6 -61 0 -24 -9 -25 -13 -21 -64 6 -68 35 -105 84 -105 19 0 37 6 42 15 6 12 18 14 50 9 35 -5 42 -10 42 -29 0 -33 -31 -55 -86 -61 -106 -13 -186 36 -218 134 -23 68 -15 113 25 146 40 34 127 36 198 5z m-2289 -74 c0 -8 -4 -15 -10 -15 -5 0 -10 7 -10 15 0 8 5 15 10 15 6 0 10 -7 10 -15z m-6 -41 c9 -3 16 -12 16 -20 0 -10 -9 -12 -32 -7 -41 7 -46 12 -28 23 18 11 23 12 44 4z m14 -64 c67 -19 84 -31 64 -44 -16 -10 -157 40 -160 57 -2 10 2 15 10 13 7 -3 46 -14 86 -26z m-56 -48 c54 -17 83 -32 62 -32 -14 0 -146 39 -152 45 -11 11 35 4 90 -13z m-104 -21 c10 -6 7 -10 -11 -15 -14 -3 -33 -9 -44 -13 -17 -6 -17 -5 1 15 21 24 33 27 54 13z m477 -341 c8 -25 -3 -80 -16 -80 -5 0 -9 23 -9 50 0 51 13 67 25 30z"/>
 </g>
<g id="layer104" fill="#ec7b17" stroke="none">
 <path d="M0 750 l0 -750 1560 0 1560 0 0 750 0 750 -1560 0 -1560 0 0 -750z m1230 248 c0 -7 3 -23 6 -35 6 -22 4 -23 -76 -23 -71 0 -81 -2 -76 -16 3 -9 6 -22 6 -30 0 -11 17 -14 75 -14 41 0 75 -3 75 -7 0 -5 3 -18 6 -30 6 -22 4 -23 -65 -23 -70 0 -77 -3 -65 -34 5 -13 22 -16 84 -16 77 0 78 0 83 -27 3 -16 4 -29 4 -30 -2 -1 -224 -5 -243 -4 -6 1 -11 17 -12 36 -1 20 -4 40 -7 45 -5 8 -45 195 -45 211 0 5 56 9 125 9 93 0 125 -3 125 -12z m215 -85 c10 -54 22 -102 26 -107 5 -6 9 36 9 97 l0 107 35 0 c35 0 36 -1 90 -112 30 -62 55 -110 55 -107 0 3 -9 45 -20 95 -27 123 -27 124 14 124 34 0 35 -1 46 -57 7 -32 20 -95 31 -141 10 -45 19 -87 19 -92 0 -6 -27 -10 -59 -10 l-59 0 -45 93 -45 92 -1 -93 -1 -93 -62 3 -63 3 -20 87 c-11 48 -24 90 -28 95 -5 4 -5 0 -1 -10 5 -15 -1 -17 -55 -17 -46 0 -61 3 -61 14 0 8 -3 22 -6 31 -6 15 1 16 59 13 56 -2 66 -1 62 12 -20 69 -20 70 22 70 l40 0 18 -97z m370 75 c3 -13 16 -71 30 -130 35 -149 35 -148 -19 -148 l-44 0 -7 43 c-4 23 -18 88 -31 143 -13 56 -24 105 -24 108 0 3 20 6 45 6 38 0 45 -3 50 -22z m134 -56 c7 -40 18 -71 23 -70 5 2 24 36 41 76 l32 72 41 0 c50 0 46 6 80 -152 14 -65 27 -125 31 -133 4 -12 -4 -15 -40 -15 l-45 0 -17 75 c-9 41 -19 75 -21 75 -3 0 -21 -34 -40 -75 l-35 -75 -44 0 c-38 0 -45 3 -50 23 -34 152 -55 252 -55 264 0 10 11 13 42 11 l43 -3 14 -73z m339 -64 c18 -79 32 -146 32 -150 0 -8 -90 -11 -90 -3 0 2 -13 65 -30 138 -16 74 -30 140 -30 146 0 6 18 11 43 11 l43 0 32 -142z m97 103 c3 -21 12 -58 19 -82 l14 -44 37 83 38 82 43 0 c40 0 43 -2 49 -32 4 -18 15 -69 25 -113 10 -44 22 -97 26 -118 l6 -38 -43 3 -43 3 -14 65 c-8 36 -17 68 -21 73 -4 4 -22 -27 -41 -68 l-33 -76 -46 3 c-43 3 -46 5 -53 38 -15 74 -49 226 -54 243 -5 14 1 17 39 17 45 0 45 -1 52 -39z m474 18 c45 -19 49 -24 59 -70 19 -81 21 -79 -58 -79 -54 0 -70 3 -70 14 0 8 -3 21 -6 30 -5 13 1 16 25 16 44 0 40 26 -5 39 -23 6 -45 6 -61 0 -24 -9 -25 -13 -21 -64 6 -68 35 -105 84 -105 19 0 37 6 42 15 6 12 18 14 50 9 35 -5 42 -10 42 -29 0 -33 -31 -55 -86 -61 -106 -13 -186 36 -218 134 -23 68 -15 113 25 146 40 34 127 36 198 5z m-2291 -96 c-7 -9 -7 -13 0 -13 12 0 23 -38 12 -45 -4 -2 -22 0 -40 5 -19 5 -35 8 -38 6 -2 -2 30 -15 72 -27 70 -21 91 -38 67 -54 -14 -8 -140 25 -157 42 -18 19 -4 46 36 69 16 10 27 22 24 26 -3 5 0 16 7 24 12 14 14 14 20 -3 3 -10 2 -24 -3 -30z m-41 -125 c54 -16 70 -25 62 -34 -7 -9 -19 -9 -52 1 -75 22 -97 26 -97 16 0 -5 24 -17 53 -27 62 -20 177 -71 177 -78 0 -3 -21 5 -47 17 -67 31 -189 31 -255 0 -54 -24 -57 -20 -28 37 18 36 79 88 105 89 5 1 42 -9 82 -21z m361 -350 c13 -13 16 -67 4 -83 -4 -6 -23 -22 -43 -37 l-36 -27 4 52 c7 93 9 97 54 106 3 0 10 -4 17 -11z"/>
 </g>
<g id="layer105" fill="#808181" stroke="none">
 <path d="M0 750 l0 -750 1560 0 1560 0 0 750 0 750 -1560 0 -1560 0 0 -750z m2248 313 c-372 -2 -984 -2 -1360 0 -376 1 -71 2 677 2 748 0 1055 -1 683 -2z m-1018 -65 c0 -7 3 -23 6 -35 6 -22 4 -23 -76 -23 -71 0 -81 -2 -76 -16 3 -9 6 -22 6 -30 0 -11 17 -14 75 -14 41 0 75 -3 75 -7 0 -5 3 -18 6 -30 6 -22 4 -23 -65 -23 -70 0 -77 -3 -65 -34 5 -13 22 -16 85 -16 62 0 79 -3 79 -14 0 -8 3 -21 6 -30 5 -14 -8 -16 -103 -16 -60 0 -113 -3 -116 -7 -4 -3 10 -18 31 -31 155 -105 301 -290 302 -384 0 -21 -2 -38 -4 -38 -2 0 -13 -3 -23 -6 -17 -6 -17 -6 1 8 64 50 -88 266 -284 403 -127 89 -281 163 -405 195 -55 14 -90 36 -40 25 76 -17 198 -62 286 -106 53 -26 99 -46 102 -43 2 3 1 22 -4 42 -15 60 -49 223 -49 233 0 5 56 9 125 9 93 0 125 -3 125 -12z m215 -85 c10 -54 22 -102 26 -107 5 -6 9 36 9 97 l0 107 35 0 c35 0 36 -1 90 -112 30 -62 55 -110 55 -107 0 3 -9 45 -20 95 -27 123 -27 124 14 124 34 0 35 -1 46 -57 7 -32 20 -95 31 -141 10 -45 19 -87 19 -92 0 -6 -27 -10 -59 -10 l-59 0 -45 93 -45 92 -1 -93 -1 -93 -62 3 -63 3 -20 87 c-11 48 -24 90 -28 95 -5 4 -5 0 -1 -10 5 -15 -1 -17 -55 -17 -46 0 -61 3 -61 14 0 8 -3 22 -6 31 -6 15 1 16 59 13 56 -2 66 -1 62 12 -20 69 -20 70 22 70 l40 0 18 -97z m370 75 c3 -13 16 -71 30 -130 35 -149 35 -148 -19 -148 l-44 0 -7 43 c-4 23 -18 88 -31 143 -13 56 -24 105 -24 108 0 3 20 6 45 6 38 0 45 -3 50 -22z m134 -56 c7 -40 18 -71 23 -70 5 2 24 36 41 76 l32 72 41 0 c50 0 46 6 80 -152 14 -65 27 -125 31 -133 4 -12 -4 -15 -40 -15 l-45 0 -17 75 c-9 41 -19 75 -21 75 -3 0 -21 -34 -40 -75 l-35 -75 -44 0 c-38 0 -45 3 -50 23 -34 152 -55 252 -55 264 0 10 11 13 42 11 l43 -3 14 -73z m339 -64 c18 -79 32 -146 32 -150 0 -8 -90 -11 -90 -3 0 2 -13 65 -30 138 -16 74 -30 140 -30 146 0 6 18 11 43 11 l43 0 32 -142z m97 103 c3 -21 12 -58 19 -82 l14 -44 37 83 38 82 43 0 c40 0 43 -2 49 -32 4 -18 15 -69 25 -113 10 -44 22 -97 26 -118 l6 -38 -43 3 -43 3 -14 65 c-8 36 -17 68 -21 73 -4 4 -22 -27 -41 -68 l-33 -76 -46 3 c-43 3 -46 5 -53 38 -15 74 -49 226 -54 243 -5 14 1 17 39 17 45 0 45 -1 52 -39z m474 18 c45 -19 49 -24 59 -70 19 -81 21 -79 -58 -79 -54 0 -70 3 -70 14 0 8 -3 21 -6 30 -5 13 1 16 25 16 44 0 40 26 -5 39 -23 6 -45 6 -61 0 -24 -9 -25 -13 -21 -64 6 -68 35 -105 84 -105 19 0 37 6 42 15 6 12 18 14 50 9 35 -5 42 -10 42 -29 0 -33 -31 -55 -86 -61 -106 -13 -186 36 -218 134 -23 68 -15 113 25 146 40 34 127 36 198 5z m-2274 -122 c-8 -22 9 -33 90 -62 257 -90 474 -243 593 -416 61 -90 82 -184 43 -197 -10 -3 -10 0 0 15 19 32 2 86 -52 167 -89 134 -248 262 -434 352 -131 62 -164 72 -176 53 -14 -23 -12 -25 59 -54 227 -95 432 -264 517 -426 39 -74 45 -138 15 -147 -12 -4 -13 -2 -2 9 61 64 -123 304 -343 448 -57 37 -220 117 -259 127 -14 3 -34 3 -43 -1 -13 -4 10 -20 87 -58 238 -117 413 -272 493 -436 17 -35 23 -111 9 -111 -4 0 -6 15 -4 34 9 77 -107 230 -267 351 -62 47 -207 135 -223 135 -5 0 -8 -18 -8 -39 l0 -40 -59 31 c-80 41 -166 43 -245 4 -57 -28 -106 -76 -106 -103 0 -30 63 -118 136 -189 76 -75 150 -124 223 -145 l44 -13 34 39 c35 41 63 116 63 173 0 22 4 32 13 29 6 -2 29 5 50 16 45 23 67 12 67 -37 0 -37 -4 -43 -53 -79 -20 -16 -46 -46 -57 -67 -11 -22 -29 -44 -40 -50 -11 -6 -20 -19 -20 -30 0 -25 63 -35 188 -27 73 4 92 3 83 -6 -8 -8 -56 -12 -144 -12 -119 0 -140 3 -211 29 -178 63 -322 198 -397 374 -22 51 -23 56 -8 47 14 -9 32 15 75 100 39 76 70 115 90 115 7 0 18 9 24 20 8 15 17 19 31 15 14 -5 20 -2 18 7 -4 32 3 46 27 57 15 6 24 14 21 17 -3 3 4 17 16 30 l21 24 12 -30 c7 -17 11 -36 9 -43z m-358 -294 c-4 -3 -7 0 -7 7 0 7 3 10 7 7 3 -4 3 -10 0 -14z m519 -37 c3 -8 2 -22 -3 -30 -7 -13 -12 -11 -26 14 -18 29 -18 30 3 30 11 0 23 -6 26 -14z"/>
 </g>
<g id="layer106" fill="#f18a30" stroke="none">
 <path d="M0 750 l0 -750 1560 0 1560 0 0 750 0 750 -1560 0 -1560 0 0 -750z m2248 313 c-372 -2 -984 -2 -1360 0 -376 1 -71 2 677 2 748 0 1055 -1 683 -2z m-1014 -69 c3 -9 6 -24 6 -35 0 -17 -8 -19 -75 -19 l-75 0 0 -29 0 -29 79 -4 80 -3 -6 28 -6 29 66 -4 c56 -2 66 -1 62 12 -20 69 -20 70 22 70 l38 0 20 -87 c11 -49 20 -93 20 -100 0 -6 4 -15 8 -19 4 -4 7 41 7 99 l0 107 39 0 c32 0 41 -4 47 -22 9 -31 73 -161 84 -172 5 -5 0 25 -10 65 -11 41 -20 86 -20 102 0 24 4 27 34 27 33 0 35 -2 46 -52 21 -97 50 -233 50 -240 0 -5 -27 -8 -61 -8 l-60 0 -36 80 c-20 44 -40 80 -45 80 -4 0 -8 -36 -8 -80 l0 -80 -60 0 c-68 0 -69 1 -89 100 l-11 55 -65 -3 c-56 -3 -65 -6 -65 -23 0 -17 -8 -19 -70 -19 -69 0 -76 -3 -64 -34 5 -13 22 -16 85 -16 62 0 79 -3 79 -14 0 -8 3 -21 6 -30 5 -14 -8 -16 -103 -16 -60 0 -113 -3 -116 -7 -4 -3 10 -18 31 -31 155 -105 301 -290 302 -384 0 -21 -2 -38 -4 -38 -2 0 -13 -3 -23 -6 -17 -6 -17 -6 1 8 64 50 -88 266 -284 403 -127 89 -281 163 -405 195 -55 14 -90 36 -40 25 76 -17 198 -62 286 -106 53 -26 99 -46 101 -43 3 2 -1 28 -8 57 -32 138 -44 193 -44 210 0 15 13 17 124 17 104 0 125 -3 130 -16z m591 -31 c6 -46 40 -199 51 -235 5 -16 -2 -18 -45 -18 -28 0 -51 3 -51 8 0 4 -11 57 -24 117 -14 61 -27 125 -31 143 l-7 32 50 0 50 0 7 -47z m124 -30 c7 -40 17 -73 21 -73 4 0 23 34 41 75 l33 75 48 0 c39 0 48 -3 48 -17 0 -10 11 -63 24 -118 13 -55 26 -115 29 -132 l7 -33 -44 0 -44 0 -17 75 c-9 41 -18 75 -21 75 -2 0 -20 -34 -39 -75 l-34 -75 -45 0 c-25 0 -46 1 -46 3 0 1 -15 69 -33 150 l-33 148 45 -3 46 -3 14 -72z m321 25 c26 -119 50 -232 50 -240 0 -5 -21 -8 -47 -6 l-47 3 -9 45 c-5 25 -17 82 -28 126 -28 121 -28 124 25 124 l44 0 12 -52z m115 30 c3 -13 11 -50 17 -82 l13 -59 40 81 40 82 41 0 c35 0 43 -4 48 -22 9 -30 56 -258 56 -269 0 -5 -18 -9 -40 -9 -46 0 -52 9 -64 92 -4 26 -11 50 -15 52 -4 3 -23 -29 -41 -70 l-33 -75 -45 3 c-52 3 -48 -6 -83 163 -11 55 -22 108 -25 118 -5 14 2 17 40 17 39 0 46 -3 51 -22z m476 1 c51 -22 51 -22 73 -121 l6 -28 -75 0 c-58 0 -75 3 -75 14 0 8 -3 21 -6 30 -5 13 1 16 25 16 44 0 40 26 -5 39 -23 6 -45 6 -61 0 -24 -9 -25 -13 -21 -64 6 -68 35 -105 84 -105 19 0 37 6 42 15 6 12 18 14 50 9 35 -5 42 -10 42 -29 0 -42 -35 -60 -114 -60 -86 0 -127 20 -170 84 -23 35 -29 55 -30 103 -1 55 1 62 32 89 28 25 40 29 93 29 39 0 77 -7 110 -21z m-2276 -122 c-8 -22 9 -33 90 -62 257 -90 474 -243 593 -416 61 -90 82 -184 43 -197 -10 -3 -10 0 0 15 19 32 2 86 -52 167 -89 134 -248 262 -434 352 -131 62 -164 72 -176 53 -14 -23 -12 -25 59 -54 227 -95 432 -264 517 -426 39 -74 45 -138 15 -147 -12 -4 -13 -2 -2 9 61 64 -123 304 -343 448 -57 37 -220 117 -259 127 -14 3 -34 3 -43 -1 -13 -4 10 -20 87 -58 238 -117 413 -272 493 -436 17 -35 23 -111 9 -111 -4 0 -6 15 -4 34 9 77 -107 230 -267 351 -62 47 -207 135 -223 135 -5 0 -8 -18 -8 -39 l0 -40 -59 31 c-80 41 -166 43 -245 4 -57 -28 -106 -76 -106 -103 0 -30 63 -118 136 -189 76 -75 150 -124 223 -145 l44 -13 34 39 c35 41 63 116 63 173 0 22 4 32 13 29 6 -2 29 5 50 16 45 23 67 12 67 -37 0 -37 -4 -43 -53 -79 -20 -16 -46 -46 -57 -67 -11 -22 -29 -44 -40 -50 -11 -6 -20 -19 -20 -30 0 -25 63 -35 188 -27 73 4 92 3 83 -6 -8 -8 -56 -12 -144 -12 -119 0 -140 3 -211 29 -178 63 -322 198 -397 374 -22 51 -23 56 -8 47 14 -9 32 15 75 100 39 76 70 115 90 115 7 0 18 9 24 20 8 15 17 19 31 15 14 -5 20 -2 18 7 -4 32 3 46 27 57 15 6 24 14 21 17 -3 3 4 17 16 30 l21 24 12 -30 c7 -17 11 -36 9 -43z m-358 -294 c-4 -3 -7 0 -7 7 0 7 3 10 7 7 3 -4 3 -10 0 -14z m519 -37 c3 -8 2 -22 -3 -30 -7 -13 -12 -11 -26 14 -18 29 -18 30 3 30 11 0 23 -6 26 -14z"/>
 </g>
<g id="layer107" fill="#f49a4b" stroke="none">
 <path d="M0 750 l0 -750 1560 0 1560 0 0 750 0 750 -1560 0 -1560 0 0 -750z m2248 313 c-372 -2 -984 -2 -1360 0 -376 1 -71 2 677 2 748 0 1055 -1 683 -2z m-1014 -69 c3 -9 6 -24 6 -35 0 -17 -8 -19 -75 -19 l-75 0 0 -29 0 -29 79 -4 80 -3 -6 28 -6 29 66 -4 c56 -2 66 -1 62 12 -20 69 -20 70 22 70 l38 0 20 -87 c11 -49 20 -93 20 -100 0 -6 4 -15 8 -19 4 -4 7 41 7 99 l0 107 39 0 c32 0 41 -4 47 -22 9 -31 73 -161 84 -172 5 -5 0 25 -10 65 -11 41 -20 86 -20 102 0 24 4 27 34 27 33 0 35 -2 46 -52 21 -97 50 -233 50 -240 0 -5 -27 -8 -61 -8 l-60 0 -36 80 c-20 44 -40 80 -45 80 -4 0 -8 -36 -8 -80 l0 -80 -60 0 c-68 0 -69 1 -89 100 l-11 55 -65 -3 c-56 -3 -65 -6 -65 -23 0 -17 -8 -19 -70 -19 -69 0 -76 -3 -64 -34 5 -13 22 -16 85 -16 62 0 79 -3 79 -14 0 -8 3 -21 6 -30 5 -14 -8 -16 -106 -16 -61 0 -110 -4 -108 -9 2 -4 38 -36 81 -71 141 -113 247 -257 247 -336 0 -41 -12 -55 -43 -53 -7 0 -2 4 11 9 74 30 -46 219 -239 373 -101 82 -250 159 -409 214 -75 26 -109 42 -84 39 64 -9 191 -53 291 -102 89 -43 112 -50 105 -30 -6 18 -45 201 -49 234 l-5 32 125 0 c105 0 126 -3 131 -16z m591 -31 c6 -46 40 -199 51 -235 5 -16 -2 -18 -45 -18 -28 0 -51 3 -51 8 0 4 -11 57 -24 117 -14 61 -27 125 -31 143 l-7 32 50 0 50 0 7 -47z m124 -30 c7 -40 17 -73 21 -73 4 0 23 34 41 75 l33 75 48 0 c39 0 48 -3 48 -17 0 -10 11 -63 24 -118 13 -55 26 -115 29 -132 l7 -33 -44 0 -44 0 -17 75 c-9 41 -18 75 -21 75 -2 0 -20 -34 -39 -75 l-34 -75 -45 0 c-25 0 -46 1 -46 3 0 1 -15 69 -33 150 l-33 148 45 -3 46 -3 14 -72z m321 25 c26 -119 50 -232 50 -240 0 -5 -21 -8 -47 -6 l-47 3 -9 45 c-5 25 -17 82 -28 126 -28 121 -28 124 25 124 l44 0 12 -52z m115 30 c3 -13 11 -50 17 -82 l13 -59 40 81 40 82 41 0 c35 0 43 -4 48 -22 9 -30 56 -258 56 -269 0 -5 -18 -9 -40 -9 -46 0 -52 9 -64 92 -4 26 -11 50 -15 52 -4 3 -23 -29 -41 -70 l-33 -75 -45 3 c-52 3 -48 -6 -83 163 -11 55 -22 108 -25 118 -5 14 2 17 40 17 39 0 46 -3 51 -22z m476 1 c51 -22 51 -22 73 -121 l6 -28 -75 0 c-58 0 -75 3 -75 14 0 8 -3 21 -6 30 -5 13 1 16 25 16 44 0 40 26 -5 39 -23 6 -45 6 -61 0 -24 -9 -25 -13 -21 -64 6 -68 35 -105 84 -105 19 0 37 6 42 15 6 12 18 14 50 9 35 -5 42 -10 42 -29 0 -42 -35 -60 -114 -60 -86 0 -127 20 -170 84 -23 35 -29 55 -30 103 -1 55 1 62 32 89 28 25 40 29 93 29 39 0 77 -7 110 -21z m-2282 -79 c5 -17 8 -36 5 -44 -7 -18 10 -29 111 -66 118 -43 265 -119 346 -180 86 -64 210 -195 248 -262 58 -99 61 -169 8 -167 l-22 0 23 9 c27 11 29 42 6 96 -48 115 -205 271 -379 377 -64 39 -237 117 -259 117 -12 0 -32 -30 -24 -34 2 -1 42 -19 90 -40 237 -104 476 -321 522 -476 14 -47 7 -90 -16 -90 -9 0 -9 3 0 12 19 19 14 51 -20 119 -37 74 -170 218 -263 284 -130 93 -334 190 -356 168 -7 -7 18 -24 78 -52 274 -132 521 -379 511 -513 -2 -34 -7 -44 -23 -46 -19 -4 -19 -3 -1 10 71 54 -117 301 -339 443 -49 31 -129 75 -137 75 -2 0 -4 -19 -3 -42 0 -39 3 -43 33 -52 32 -9 39 -26 26 -60 -9 -24 -27 -18 -49 16 -34 54 -107 92 -186 96 -59 4 -77 0 -124 -22 -30 -15 -68 -44 -84 -65 l-30 -38 36 -54 c55 -82 162 -181 241 -222 38 -20 79 -37 90 -37 26 0 76 58 93 107 14 43 17 115 6 156 l-8 28 30 -33 c26 -29 31 -31 52 -20 13 7 38 14 54 15 28 2 30 0 33 -38 3 -46 0 -50 -50 -87 -20 -16 -44 -45 -54 -67 -9 -22 -28 -44 -41 -50 -34 -16 -25 -43 17 -54 33 -9 202 -4 265 8 l30 6 -30 -18 c-44 -26 -286 -26 -365 0 -200 67 -339 196 -427 397 -18 41 -33 82 -32 90 0 8 6 0 14 -17 8 -18 18 -33 23 -33 12 0 52 60 83 125 39 81 43 85 74 94 17 5 23 10 15 10 -24 2 10 21 38 21 12 0 21 3 21 8 -4 24 4 41 21 47 11 3 20 13 20 21 0 8 4 14 9 14 5 0 11 9 14 20 8 29 23 24 36 -10z"/>
 </g>
<g id="layer108" fill="#f7a45b" stroke="none">
 <path d="M0 750 l0 -750 1560 0 1560 0 0 750 0 750 -1560 0 -1560 0 0 -750z m2248 313 c-372 -2 -984 -2 -1360 0 -376 1 -71 2 677 2 748 0 1055 -1 683 -2z m-1014 -69 c3 -9 6 -24 6 -35 0 -17 -8 -19 -75 -19 l-75 0 0 -29 0 -29 79 -4 80 -3 -6 28 -6 29 66 -4 c56 -2 66 -1 62 12 -20 69 -20 70 22 70 l38 0 20 -87 c11 -49 20 -93 20 -100 0 -6 4 -15 8 -19 4 -4 7 41 7 99 l0 107 39 0 c32 0 41 -4 47 -22 9 -31 73 -161 84 -172 5 -5 0 25 -10 65 -11 41 -20 86 -20 102 0 24 4 27 34 27 33 0 35 -2 46 -52 21 -97 50 -233 50 -240 0 -5 -27 -8 -61 -8 l-60 0 -36 80 c-20 44 -40 80 -45 80 -4 0 -8 -36 -8 -80 l0 -80 -60 0 c-68 0 -69 1 -89 100 l-11 55 -65 -3 c-56 -3 -65 -6 -65 -23 0 -17 -8 -19 -70 -19 -69 0 -76 -3 -64 -34 5 -13 22 -16 85 -16 62 0 79 -3 79 -14 0 -8 3 -21 6 -30 5 -14 -8 -16 -105 -16 -61 0 -111 -4 -111 -8 0 -5 21 -24 48 -42 159 -114 287 -284 280 -373 -3 -37 -6 -42 -28 -44 -14 -1 -18 0 -8 3 35 10 33 53 -3 123 -68 134 -275 309 -472 401 -133 61 -297 112 -297 91 0 -13 48 -38 167 -85 201 -80 369 -200 482 -345 103 -133 127 -241 52 -241 -20 0 -30 -6 -34 -20 -3 -11 -11 -20 -18 -20 -10 0 -10 3 -1 12 51 51 -96 262 -278 398 -119 87 -325 188 -359 175 -10 -4 25 -27 106 -69 130 -67 193 -110 288 -195 66 -58 150 -164 179 -226 32 -66 25 -125 -14 -125 -20 0 -20 0 0 20 15 15 19 27 14 48 -31 126 -213 310 -426 431 l-58 32 0 -30 c0 -26 6 -33 35 -45 37 -16 42 -30 24 -70 -9 -20 -8 -29 7 -50 25 -34 49 -41 76 -22 33 23 57 20 68 -10 16 -42 -4 -95 -45 -121 -20 -13 -45 -44 -59 -72 -15 -29 -34 -51 -46 -54 -29 -8 -22 -39 10 -48 64 -18 249 -3 323 26 9 4 17 3 17 -3 0 -37 -253 -66 -373 -42 -167 32 -311 128 -409 271 -43 62 -108 204 -107 234 0 14 4 11 12 -12 23 -63 30 -58 98 71 43 82 91 136 120 136 9 0 22 7 29 15 7 8 9 15 6 15 -4 0 2 14 14 30 12 17 27 30 33 30 7 0 18 15 25 33 10 26 14 29 22 17 5 -8 10 -25 10 -37 0 -16 8 -24 28 -29 139 -31 238 -66 352 -124 59 -30 78 -34 72 -16 -6 18 -45 201 -49 234 l-5 32 125 0 c105 0 126 -3 131 -16z m591 -31 c6 -46 40 -199 51 -235 5 -16 -2 -18 -45 -18 -28 0 -51 3 -51 8 0 4 -11 57 -24 117 -14 61 -27 125 -31 143 l-7 32 50 0 50 0 7 -47z m124 -30 c7 -40 17 -73 21 -73 4 0 23 34 41 75 l33 75 48 0 c39 0 48 -3 48 -17 0 -10 11 -63 24 -118 13 -55 26 -115 29 -132 l7 -33 -44 0 -44 0 -17 75 c-9 41 -18 75 -21 75 -2 0 -20 -34 -39 -75 l-34 -75 -45 0 c-25 0 -46 1 -46 3 0 1 -15 69 -33 150 l-33 148 45 -3 46 -3 14 -72z m321 25 c26 -119 50 -232 50 -240 0 -5 -21 -8 -47 -6 l-47 3 -9 45 c-5 25 -17 82 -28 126 -28 121 -28 124 25 124 l44 0 12 -52z m115 30 c3 -13 11 -50 17 -82 l13 -59 40 81 40 82 41 0 c35 0 43 -4 48 -22 9 -30 56 -258 56 -269 0 -5 -18 -9 -40 -9 -46 0 -52 9 -64 92 -4 26 -11 50 -15 52 -4 3 -23 -29 -41 -70 l-33 -75 -45 3 c-52 3 -48 -6 -83 163 -11 55 -22 108 -25 118 -5 14 2 17 40 17 39 0 46 -3 51 -22z m476 1 c51 -22 51 -22 73 -121 l6 -28 -75 0 c-58 0 -75 3 -75 14 0 8 -3 21 -6 30 -5 13 1 16 25 16 44 0 40 26 -5 39 -23 6 -45 6 -61 0 -24 -9 -25 -13 -21 -64 6 -68 35 -105 84 -105 19 0 37 6 42 15 6 12 18 14 50 9 35 -5 42 -10 42 -29 0 -42 -35 -60 -114 -60 -86 0 -127 20 -170 84 -23 35 -29 55 -30 103 -1 55 1 62 32 89 28 25 40 29 93 29 39 0 77 -7 110 -21z"/>
 <path d="M646 774 c-8 -22 -8 -24 7 -24 29 0 241 -114 315 -170 141 -106 292 -291 292 -357 0 -18 6 -23 25 -23 33 0 41 22 25 73 -18 61 -78 142 -171 233 -119 114 -255 201 -417 263 -63 25 -68 25 -76 5z"/>
 <path d="M392 568 c-22 -13 -57 -38 -77 -55 -35 -32 -35 -33 -20 -62 48 -95 209 -236 297 -263 35 -10 40 -9 64 13 112 104 81 300 -59 368 -60 29 -150 29 -205 -1z"/>
 </g>
<g id="layer109" fill="#b1b3b5" stroke="none">
 <path d="M0 750 l0 -750 1560 0 1560 0 0 750 0 750 -1560 0 -1560 0 0 -750z m2253 313 c-376 -2 -990 -2 -1365 0 -376 1 -69 2 682 2 751 0 1058 -1 683 -2z m-1019 -69 c3 -9 6 -24 6 -35 0 -17 -8 -19 -75 -19 l-75 0 0 -29 0 -29 79 -4 80 -3 -6 28 -6 29 66 -4 c56 -2 66 -1 62 12 -20 69 -20 70 22 70 l38 0 20 -87 c11 -49 20 -93 20 -100 0 -6 4 -15 8 -19 4 -4 7 41 7 99 l0 107 39 0 c32 0 41 -4 47 -22 9 -31 73 -161 84 -172 5 -5 0 25 -10 65 -11 41 -20 86 -20 102 0 24 4 27 34 27 33 0 35 -2 46 -52 21 -97 50 -233 50 -240 0 -5 -27 -8 -61 -8 l-60 0 -36 80 c-20 44 -40 80 -45 80 -4 0 -8 -36 -8 -80 l0 -80 -60 0 c-68 0 -69 1 -89 100 l-11 55 -65 -3 c-56 -3 -65 -6 -65 -23 0 -17 -8 -19 -70 -19 -69 0 -76 -3 -64 -34 5 -13 22 -16 85 -16 62 0 79 -3 79 -14 0 -8 3 -21 6 -30 5 -14 -8 -16 -105 -16 -61 0 -111 -3 -111 -7 1 -5 28 -28 61 -53 88 -65 205 -193 240 -262 38 -75 38 -141 1 -146 l-24 -4 21 21 c16 16 20 28 15 49 -31 131 -235 329 -455 441 -96 49 -311 125 -333 118 -16 -5 68 -56 128 -77 218 -75 446 -245 555 -412 69 -108 76 -188 15 -188 -17 0 -28 -7 -31 -19 -5 -20 -31 -36 -41 -26 -3 3 2 11 12 18 58 43 -87 255 -269 392 -119 89 -338 197 -366 179 -7 -4 39 -33 107 -68 188 -96 285 -171 384 -293 111 -138 140 -254 62 -252 -25 0 -25 1 -6 9 28 11 35 32 24 70 -34 117 -214 300 -401 405 -72 41 -79 42 -79 12 0 -17 9 -27 33 -38 34 -15 47 -50 27 -74 -13 -16 -3 -40 29 -70 21 -18 23 -18 50 -2 40 23 59 21 73 -8 17 -39 -4 -95 -47 -122 -20 -13 -45 -44 -59 -72 -15 -29 -34 -51 -46 -54 -14 -4 -21 -12 -18 -24 2 -15 18 -20 81 -27 65 -8 95 -6 180 12 56 11 113 24 127 28 44 12 9 -13 -50 -36 -79 -32 -258 -39 -365 -15 -143 32 -276 115 -362 229 -52 69 -120 204 -129 256 l-5 35 18 -40 19 -39 31 44 c17 25 44 72 61 105 29 58 76 105 105 105 20 0 41 26 28 34 -11 7 34 56 52 56 7 0 18 15 25 33 10 26 14 29 22 17 5 -8 10 -25 10 -36 0 -17 8 -23 37 -29 73 -13 200 -58 301 -106 101 -47 120 -53 114 -35 -6 18 -45 201 -49 234 l-5 32 125 0 c105 0 126 -3 131 -16z m591 -31 c6 -46 40 -199 51 -235 5 -16 -2 -18 -45 -18 -28 0 -51 3 -51 8 0 4 -11 57 -24 117 -14 61 -27 125 -31 143 l-7 32 50 0 50 0 7 -47z m124 -30 c7 -40 17 -73 21 -73 4 0 23 34 41 75 l33 75 48 0 c39 0 48 -3 48 -17 0 -10 11 -63 24 -118 13 -55 26 -115 29 -132 l7 -33 -44 0 -44 0 -17 75 c-9 41 -18 75 -21 75 -2 0 -20 -34 -39 -75 l-34 -75 -45 0 c-25 0 -46 1 -46 3 0 1 -15 69 -33 150 l-33 148 45 -3 46 -3 14 -72z m321 25 c26 -119 50 -232 50 -240 0 -5 -21 -8 -47 -6 l-47 3 -9 45 c-5 25 -17 82 -28 126 -28 121 -28 124 25 124 l44 0 12 -52z m115 30 c3 -13 11 -50 17 -82 l13 -59 40 81 40 82 41 0 c35 0 43 -4 48 -22 9 -30 56 -258 56 -269 0 -5 -18 -9 -40 -9 -46 0 -52 9 -64 92 -4 26 -11 50 -15 52 -4 3 -23 -29 -41 -70 l-33 -75 -45 3 c-52 3 -48 -6 -83 163 -11 55 -22 108 -25 118 -5 14 2 17 40 17 39 0 46 -3 51 -22z m476 1 c51 -22 51 -22 73 -121 l6 -28 -75 0 c-58 0 -75 3 -75 14 0 8 -3 21 -6 30 -5 13 1 16 25 16 44 0 40 26 -5 39 -23 6 -45 6 -61 0 -24 -9 -25 -13 -21 -64 6 -68 35 -105 84 -105 19 0 37 6 42 15 6 12 18 14 50 9 35 -5 42 -10 42 -29 0 -42 -35 -60 -114 -60 -86 0 -127 20 -170 84 -23 35 -29 55 -30 103 -1 55 1 62 32 89 28 25 40 29 93 29 39 0 77 -7 110 -21z"/>
 <path d="M646 774 c-8 -22 -9 -21 20 -28 38 -10 196 -90 252 -128 175 -118 304 -267 346 -400 8 -28 45 -22 52 7 17 69 -125 254 -287 375 -79 59 -216 134 -309 169 -66 25 -66 25 -74 5z"/>
 <path d="M405 551 c-22 -10 -49 -28 -59 -40 -11 -11 -30 -21 -43 -21 -29 0 -29 -6 4 -55 53 -80 108 -138 175 -185 76 -53 116 -67 147 -50 25 13 67 83 76 128 16 79 -38 182 -116 222 -49 25 -130 26 -184 1z"/>
 </g>
<g id="layer110" fill="#f7b276" stroke="none">
 <path d="M0 750 l0 -750 1560 0 1560 0 0 750 0 750 -1560 0 -1560 0 0 -750z m781 593 c18 -28 19 -33 5 -33 -9 0 -16 5 -16 12 0 21 -33 48 -60 48 -42 0 -65 -33 -64 -95 0 -100 87 -166 130 -100 19 29 36 34 27 8 -21 -60 -86 -72 -133 -25 -52 52 -64 159 -23 204 41 46 98 38 134 -19z m720 20 c32 -30 54 -100 45 -147 -21 -111 -130 -117 -185 -9 -19 37 -14 117 10 147 39 50 83 53 130 9z m451 -1 c37 -34 55 -115 38 -165 -14 -44 -43 -67 -85 -67 -103 0 -147 208 -53 253 37 18 65 12 100 -21z m249 16 c27 -10 39 -39 39 -94 0 -21 -5 -24 -40 -24 -29 0 -40 4 -40 15 0 10 10 15 31 15 29 0 31 2 25 28 -9 35 -32 52 -72 52 -42 0 -64 -30 -64 -88 0 -105 88 -171 139 -105 28 34 41 21 14 -15 -41 -56 -127 -32 -159 44 -21 50 -18 126 6 157 28 36 57 39 121 15z m-1928 -99 c9 -60 19 -114 22 -120 4 -5 22 -9 41 -9 19 0 34 -4 34 -10 0 -6 -35 -10 -85 -10 -50 0 -85 4 -85 10 0 6 16 10 35 10 41 0 40 -9 16 133 -12 76 -14 107 -6 107 7 0 18 -45 28 -111z m272 101 c4 -6 -18 -10 -59 -10 l-66 0 0 -34 c0 -60 6 -66 71 -66 46 0 59 -3 59 -15 0 -12 -13 -15 -61 -15 -53 0 -60 -2 -56 -17 3 -10 8 -30 11 -45 6 -27 9 -28 71 -28 37 0 65 -4 65 -10 0 -8 -150 -16 -150 -7 0 1 -9 55 -20 120 -11 65 -20 123 -20 128 0 12 147 12 155 -1z m340 -56 l10 -59 49 -3 c74 -5 76 -3 61 68 -9 44 -10 60 -1 57 6 -2 18 -42 27 -89 27 -142 30 -168 20 -168 -11 0 -16 15 -26 73 l-6 37 -60 0 -59 0 6 -57 c11 -102 -13 -46 -31 72 -9 61 -19 116 -21 123 -2 8 2 12 8 10 7 -3 17 -31 23 -64z m242 -10 c7 -38 16 -87 21 -109 l7 -40 40 113 c21 61 44 112 50 112 6 0 19 -48 29 -107 9 -60 20 -118 23 -130 3 -13 1 -23 -4 -23 -10 0 -43 148 -43 189 0 34 -18 24 -30 -16 -24 -78 -63 -173 -71 -173 -10 0 -15 18 -29 110 -6 36 -14 84 -19 108 -6 29 -5 42 2 39 6 -2 16 -34 24 -73z m603 66 c0 -5 -25 -10 -56 -10 l-56 0 7 -60 c4 -34 13 -88 19 -120 7 -33 9 -60 5 -60 -13 0 -17 13 -34 110 -8 52 -18 107 -21 123 l-6 27 71 0 c41 0 71 -4 71 -10z m673 -36 c3 -27 18 -66 37 -97 70 -111 73 -117 58 -117 -8 0 -32 29 -53 65 -21 36 -41 62 -45 58 -4 -4 -18 -34 -31 -65 -13 -32 -27 -58 -31 -58 -14 0 -9 20 22 89 25 57 28 76 23 120 -3 32 -2 51 4 51 6 0 13 -20 16 -46z m195 34 c23 -23 13 -47 -28 -67 -22 -10 -40 -16 -40 -12 0 4 15 14 33 22 21 9 32 21 32 34 0 27 -44 33 -62 9 -7 -10 -13 -13 -13 -8 0 17 23 34 45 34 12 0 26 -5 33 -12z m174 -35 c5 -7 5 -13 0 -17 -10 -6 -23 27 -21 54 1 8 3 6 6 -5 3 -11 9 -25 15 -32z m61 0 c-9 -27 -18 -50 -21 -53 -6 -6 5 41 18 75 17 44 19 27 3 -22z m-233 -73 c0 -5 -10 -14 -21 -21 -17 -9 -24 -8 -38 7 -15 16 -15 17 0 6 17 -13 49 -7 49 9 0 5 2 9 5 9 3 0 5 -4 5 -10z m208 -2 c-2 -5 -8 -9 -13 -9 -5 0 -11 4 -13 9 -1 5 4 9 13 9 9 0 14 -4 13 -9z m-555 -205 c-376 -2 -990 -2 -1365 0 -376 1 -69 2 682 2 751 0 1058 -1 683 -2z m609 -75 c50 -21 53 -26 72 -123 l7 -31 -73 4 c-40 2 -73 5 -74 6 -1 0 -4 13 -8 29 -6 25 -4 27 24 27 42 0 38 24 -6 38 -24 7 -44 8 -61 1 -25 -9 -25 -12 -20 -67 5 -45 12 -62 32 -79 31 -27 61 -29 86 -7 14 12 26 14 60 7 52 -10 57 -22 25 -59 -23 -27 -29 -29 -103 -29 -66 0 -84 4 -111 24 -73 52 -109 157 -77 225 20 41 26 47 69 56 43 9 103 1 158 -22z m-1628 6 c3 -9 6 -24 6 -35 0 -17 -8 -19 -75 -19 l-75 0 0 -30 0 -30 75 0 c74 0 75 0 75 26 0 25 1 26 65 22 54 -2 64 0 60 12 -20 69 -20 70 22 70 l40 0 18 -85 c10 -47 22 -88 26 -91 5 -3 9 36 9 85 l0 91 38 0 38 0 44 -96 c25 -53 48 -98 51 -100 4 -2 -1 29 -12 69 -10 39 -19 84 -19 100 0 24 4 27 34 27 38 0 36 6 76 -180 10 -47 21 -93 25 -102 6 -16 1 -18 -43 -18 -28 0 -57 -2 -64 -5 -10 -4 -26 19 -53 77 l-39 83 -9 -81 -9 -81 -56 5 c-60 4 -82 20 -82 55 0 11 -5 37 -12 58 l-11 39 -64 0 c-61 0 -63 -1 -63 -25 0 -24 -2 -25 -69 -25 -64 0 -69 -1 -64 -20 5 -18 14 -20 84 -20 62 0 79 -3 79 -14 0 -8 3 -21 6 -30 5 -14 -8 -16 -105 -16 -61 0 -111 -3 -111 -7 1 -5 28 -28 61 -53 88 -65 205 -193 240 -262 38 -75 38 -141 1 -146 l-24 -4 21 21 c16 16 20 28 15 49 -31 131 -235 329 -455 441 -96 49 -311 125 -333 118 -16 -5 68 -56 128 -77 218 -75 446 -245 555 -412 69 -108 76 -188 15 -188 -17 0 -28 -7 -31 -19 -5 -20 -31 -36 -41 -26 -3 3 2 11 12 18 58 43 -87 255 -269 392 -119 89 -338 197 -366 179 -7 -4 39 -33 107 -68 188 -96 285 -171 384 -293 111 -138 140 -254 62 -252 -25 0 -25 1 -6 9 28 11 35 32 24 70 -34 117 -214 300 -401 405 -72 41 -79 42 -79 12 0 -17 9 -27 33 -38 34 -15 47 -50 27 -74 -13 -16 -3 -40 29 -70 21 -18 23 -18 50 -2 40 23 59 21 73 -8 17 -39 -4 -95 -47 -122 -20 -13 -45 -44 -59 -72 -15 -29 -34 -51 -46 -54 -14 -4 -21 -12 -18 -24 2 -15 18 -20 81 -27 65 -8 95 -6 180 12 56 11 113 24 127 28 44 12 9 -13 -50 -36 -79 -32 -258 -39 -365 -15 -143 32 -276 115 -362 229 -52 69 -120 204 -129 256 l-5 35 18 -40 19 -39 31 44 c17 25 44 72 61 105 29 58 76 105 105 105 20 0 41 26 28 34 -11 7 34 56 52 56 7 0 18 15 25 33 10 26 14 29 22 17 5 -8 10 -25 10 -36 0 -17 8 -23 38 -29 74 -14 219 -66 315 -113 54 -26 99 -47 101 -45 2 2 -7 43 -20 90 -13 48 -21 89 -19 91 2 3 1 12 -4 21 -4 9 -11 31 -14 49 l-6 32 128 0 c108 0 130 -3 135 -16z m598 -66 c9 -46 24 -114 32 -152 9 -38 15 -70 13 -71 -1 -1 -23 0 -48 3 l-46 4 -26 116 c-15 65 -29 132 -33 150 l-6 32 49 0 49 0 16 -82z m117 5 c7 -40 17 -73 21 -73 4 0 23 34 41 75 l33 75 46 0 46 0 12 -57 c7 -32 21 -98 31 -148 11 -49 19 -90 18 -91 -1 -1 -21 -4 -43 -6 l-41 -6 -13 57 c-25 112 -22 111 -63 27 l-37 -76 -45 0 c-41 0 -45 2 -51 28 -3 15 -8 34 -11 42 -6 16 -7 24 -22 106 -5 29 -14 68 -20 88 l-10 37 47 -3 47 -3 14 -72z m320 35 c6 -24 16 -65 21 -93 5 -27 16 -76 23 -107 8 -32 13 -59 11 -61 -2 -2 -25 -1 -51 3 l-47 5 -12 55 c-6 30 -19 88 -28 128 -24 110 -24 112 28 112 43 0 44 -1 55 -42z m115 25 c3 -10 10 -47 17 -82 l12 -64 40 82 40 82 46 -3 45 -3 23 -110 c13 -60 26 -127 29 -147 l7 -38 -41 0 c-48 0 -49 2 -62 71 -6 29 -14 57 -20 63 -5 5 -21 -19 -41 -63 l-32 -71 -44 0 c-50 0 -54 6 -73 110 -7 36 -16 76 -20 90 -5 14 -11 42 -14 63 l-5 37 44 0 c33 0 45 -4 49 -17z"/>
 <path d="M1391 1344 c-49 -63 -2 -194 69 -194 72 0 93 119 34 190 -33 39 -74 41 -103 4z"/>
 <path d="M1846 1354 c-58 -58 -11 -204 66 -204 63 0 85 126 32 189 -29 35 -72 41 -98 15z"/>
 <path d="M646 774 c-8 -22 -9 -21 20 -28 38 -10 196 -90 252 -128 175 -118 304 -267 346 -400 8 -28 45 -22 52 7 17 69 -125 254 -287 375 -79 59 -216 134 -309 169 -66 25 -66 25 -74 5z"/>
 <path d="M405 551 c-22 -10 -49 -28 -59 -40 -11 -11 -30 -21 -43 -21 -29 0 -29 -6 4 -55 53 -80 108 -138 175 -185 76 -53 116 -67 147 -50 25 13 67 83 76 128 16 79 -38 182 -116 222 -49 25 -130 26 -184 1z"/>
 </g>
<g id="layer111" fill="#bebfc2" stroke="none">
 <path d="M0 750 l0 -750 1560 0 1560 0 0 750 0 750 -1560 0 -1560 0 0 -750z m781 593 c18 -28 19 -33 5 -33 -9 0 -16 5 -16 12 0 21 -33 48 -60 48 -42 0 -65 -33 -64 -95 0 -100 87 -166 130 -100 19 29 36 34 27 8 -21 -60 -86 -72 -133 -25 -52 52 -64 159 -23 204 41 46 98 38 134 -19z m720 20 c32 -30 54 -100 45 -147 -21 -111 -130 -117 -185 -9 -19 37 -14 117 10 147 39 50 83 53 130 9z m451 -1 c37 -34 55 -115 38 -165 -14 -44 -43 -67 -85 -67 -103 0 -147 208 -53 253 37 18 65 12 100 -21z m249 16 c27 -10 39 -39 39 -94 0 -21 -5 -24 -40 -24 -29 0 -40 4 -40 15 0 10 10 15 31 15 29 0 31 2 25 28 -9 35 -32 52 -72 52 -42 0 -64 -30 -64 -88 0 -105 88 -171 139 -105 28 34 41 21 14 -15 -41 -56 -127 -32 -159 44 -21 50 -18 126 6 157 28 36 57 39 121 15z m-1928 -99 c9 -60 19 -114 22 -120 4 -5 22 -9 41 -9 19 0 34 -4 34 -10 0 -6 -35 -10 -85 -10 -50 0 -85 4 -85 10 0 6 16 10 35 10 41 0 40 -9 16 133 -12 76 -14 107 -6 107 7 0 18 -45 28 -111z m272 101 c4 -6 -18 -10 -59 -10 l-66 0 0 -34 c0 -60 6 -66 71 -66 46 0 59 -3 59 -15 0 -12 -13 -15 -61 -15 -53 0 -60 -2 -56 -17 3 -10 8 -30 11 -45 6 -27 9 -28 71 -28 37 0 65 -4 65 -10 0 -8 -150 -16 -150 -7 0 1 -9 55 -20 120 -11 65 -20 123 -20 128 0 12 147 12 155 -1z m340 -56 l10 -59 49 -3 c74 -5 76 -3 61 68 -9 44 -10 60 -1 57 6 -2 18 -42 27 -89 27 -142 30 -168 20 -168 -11 0 -16 15 -26 73 l-6 37 -60 0 -59 0 6 -57 c11 -102 -13 -46 -31 72 -9 61 -19 116 -21 123 -2 8 2 12 8 10 7 -3 17 -31 23 -64z m242 -10 c7 -38 16 -87 21 -109 l7 -40 40 113 c21 61 44 112 50 112 6 0 19 -48 29 -107 9 -60 20 -118 23 -130 3 -13 1 -23 -4 -23 -10 0 -43 148 -43 189 0 34 -18 24 -30 -16 -24 -78 -63 -173 -71 -173 -10 0 -15 18 -29 110 -6 36 -14 84 -19 108 -6 29 -5 42 2 39 6 -2 16 -34 24 -73z m603 66 c0 -5 -25 -10 -56 -10 l-56 0 7 -60 c4 -34 13 -88 19 -120 7 -33 9 -60 5 -60 -13 0 -17 13 -34 110 -8 52 -18 107 -21 123 l-6 27 71 0 c41 0 71 -4 71 -10z m673 -36 c3 -27 18 -66 37 -97 70 -111 73 -117 58 -117 -8 0 -32 29 -53 65 -21 36 -41 62 -45 58 -4 -4 -18 -34 -31 -65 -13 -32 -27 -58 -31 -58 -14 0 -9 20 22 89 25 57 28 76 23 120 -3 32 -2 51 4 51 6 0 13 -20 16 -46z m195 34 c23 -23 13 -47 -28 -67 -22 -10 -40 -16 -40 -12 0 4 15 14 33 22 21 9 32 21 32 34 0 27 -44 33 -62 9 -7 -10 -13 -13 -13 -8 0 17 23 34 45 34 12 0 26 -5 33 -12z m174 -35 c5 -7 5 -13 0 -17 -10 -6 -23 27 -21 54 1 8 3 6 6 -5 3 -11 9 -25 15 -32z m61 0 c-9 -27 -18 -50 -21 -53 -6 -6 5 41 18 75 17 44 19 27 3 -22z m-233 -73 c0 -5 -10 -14 -21 -21 -17 -9 -24 -8 -38 7 -15 16 -15 17 0 6 17 -13 49 -7 49 9 0 5 2 9 5 9 3 0 5 -4 5 -10z m208 -2 c-2 -5 -8 -9 -13 -9 -5 0 -11 4 -13 9 -1 5 4 9 13 9 9 0 14 -4 13 -9z m117 -198 c4 -7 -450 -10 -1354 -10 -901 0 -1361 3 -1361 10 0 14 2706 14 2715 0z m-63 -82 c50 -21 53 -26 72 -123 l7 -31 -73 4 c-40 2 -73 5 -74 6 -1 0 -4 13 -8 29 -6 25 -4 27 24 27 42 0 38 24 -6 38 -24 7 -44 8 -61 1 -25 -9 -25 -12 -20 -67 5 -45 12 -62 32 -79 31 -27 61 -29 86 -7 14 12 26 14 60 7 52 -10 57 -22 25 -59 -23 -27 -29 -29 -103 -29 -66 0 -84 4 -111 24 -73 52 -109 157 -77 225 20 41 26 47 69 56 43 9 103 1 158 -22z m-1628 6 c3 -9 6 -24 6 -35 0 -17 -8 -19 -75 -19 l-75 0 0 -30 0 -30 75 0 c74 0 75 0 75 26 0 25 1 26 65 22 54 -2 64 0 60 12 -20 69 -20 70 22 70 l40 0 18 -85 c10 -47 22 -88 26 -91 5 -3 9 36 9 85 l0 91 38 0 38 0 44 -96 c25 -53 48 -98 51 -100 4 -2 -1 29 -12 69 -10 39 -19 84 -19 100 0 24 4 27 34 27 38 0 36 6 76 -180 10 -47 21 -93 25 -102 6 -16 1 -18 -43 -18 -28 0 -57 -2 -64 -5 -10 -4 -26 19 -53 77 l-39 83 -9 -81 -9 -81 -56 5 c-60 4 -82 20 -82 55 0 11 -5 37 -12 58 l-11 39 -64 0 c-61 0 -63 -1 -63 -25 0 -24 -2 -25 -69 -25 -64 0 -69 -1 -64 -20 5 -18 14 -20 84 -20 62 0 79 -3 79 -14 0 -8 3 -21 6 -30 5 -14 -8 -16 -105 -16 -61 0 -111 -3 -111 -7 1 -5 26 -26 57 -48 80 -58 213 -202 246 -267 21 -41 27 -67 25 -99 -3 -39 -6 -44 -30 -47 -18 -2 -28 -11 -32 -28 -5 -19 -13 -24 -36 -24 -17 0 -30 -4 -30 -9 0 -15 -30 -41 -48 -41 -13 0 -12 4 5 20 76 70 -131 325 -382 472 -90 53 -231 112 -245 103 -5 -3 38 -30 95 -60 238 -123 384 -252 474 -418 48 -89 39 -138 -23 -136 -24 1 -26 3 -8 6 12 2 27 13 32 24 14 24 11 24 -61 -6 -177 -75 -360 -69 -544 19 -149 70 -269 207 -333 379 -26 68 -28 109 -4 54 l17 -39 31 44 c17 23 45 73 62 109 18 38 40 70 54 77 13 6 17 11 11 11 -7 1 -13 5 -13 11 0 5 12 7 28 4 31 -5 58 8 48 25 -4 6 -17 12 -29 12 -13 1 -7 4 13 8 38 7 54 36 23 44 -10 3 -1 3 20 2 33 -3 39 0 53 27 17 32 30 28 36 -11 3 -20 17 -27 118 -57 63 -19 164 -58 223 -87 59 -29 109 -52 111 -50 2 2 -7 43 -20 90 -13 48 -21 89 -19 91 2 3 1 12 -4 21 -4 9 -11 31 -14 49 l-6 32 128 0 c108 0 130 -3 135 -16z m598 -66 c9 -46 24 -114 32 -152 9 -38 15 -70 13 -71 -1 -1 -23 0 -48 3 l-46 4 -26 116 c-15 65 -29 132 -33 150 l-6 32 49 0 49 0 16 -82z m117 5 c7 -40 17 -73 21 -73 4 0 23 34 41 75 l33 75 46 0 46 0 12 -57 c7 -32 21 -98 31 -148 11 -49 19 -90 18 -91 -1 -1 -21 -4 -43 -6 l-41 -6 -13 57 c-25 112 -22 111 -63 27 l-37 -76 -45 0 c-41 0 -45 2 -51 28 -3 15 -8 34 -11 42 -6 16 -7 24 -22 106 -5 29 -14 68 -20 88 l-10 37 47 -3 47 -3 14 -72z m320 35 c6 -24 16 -65 21 -93 5 -27 16 -76 23 -107 8 -32 13 -59 11 -61 -2 -2 -25 -1 -51 3 l-47 5 -12 55 c-6 30 -19 88 -28 128 -24 110 -24 112 28 112 43 0 44 -1 55 -42z m115 25 c3 -10 10 -47 17 -82 l12 -64 40 82 40 82 46 -3 45 -3 23 -110 c13 -60 26 -127 29 -147 l7 -38 -41 0 c-48 0 -49 2 -62 71 -6 29 -14 57 -20 63 -5 5 -21 -19 -41 -63 l-32 -71 -44 0 c-50 0 -54 6 -73 110 -7 36 -16 76 -20 90 -5 14 -11 42 -14 63 l-5 37 44 0 c33 0 45 -4 49 -17z"/>
 <path d="M1391 1344 c-49 -63 -2 -194 69 -194 72 0 93 119 34 190 -33 39 -74 41 -103 4z"/>
 <path d="M1846 1354 c-58 -58 -11 -204 66 -204 63 0 85 126 32 189 -29 35 -72 41 -98 15z"/>
 <path d="M598 858 c15 -18 82 -51 180 -89 237 -91 491 -312 547 -476 18 -52 49 -53 53 -1 4 43 -14 81 -74 159 -124 162 -353 310 -600 388 -108 35 -121 37 -106 19z"/>
 <path d="M650 772 c0 -13 17 -25 58 -42 245 -99 488 -315 547 -487 14 -42 35 -52 55 -28 32 39 -44 169 -170 289 -117 112 -290 220 -429 267 -66 23 -61 23 -61 1z"/>
 <path d="M690 616 c0 -19 8 -27 35 -36 29 -9 35 -17 35 -39 0 -15 -5 -32 -12 -39 -8 -8 -4 -20 16 -47 30 -40 34 -41 62 -20 23 18 56 19 72 3 28 -28 6 -104 -39 -133 -17 -11 -44 -43 -60 -71 -16 -29 -39 -54 -50 -57 -13 -4 -19 -12 -17 -24 8 -43 224 -38 361 9 81 27 84 31 63 74 -58 122 -249 299 -413 383 -53 26 -53 26 -53 -3z"/>
 <path d="M415 536 c-17 -7 -36 -20 -44 -29 -8 -11 -28 -17 -52 -17 -22 0 -39 -4 -39 -9 0 -5 20 -35 44 -67 79 -107 207 -214 254 -214 64 0 125 124 102 209 -13 50 -63 109 -107 127 -41 17 -119 17 -158 0z"/>
 </g>
<g id="layer112" fill="#c0c2c4" stroke="none">
 <path d="M0 750 l0 -750 1560 0 1560 0 0 750 0 750 -1560 0 -1560 0 0 -750z m758 627 c22 -17 43 -65 32 -72 -5 -3 -16 8 -25 25 -16 30 -52 47 -80 36 -8 -3 -23 -21 -32 -41 -16 -33 -16 -38 1 -90 26 -84 76 -108 122 -58 31 33 45 22 17 -15 -29 -40 -86 -43 -124 -6 -40 38 -58 121 -38 177 21 62 81 82 127 44z m716 8 c74 -35 102 -163 50 -224 -20 -24 -34 -31 -63 -31 -43 0 -62 12 -90 60 -23 39 -28 114 -10 154 7 14 26 32 43 40 38 19 32 19 70 1z m477 -22 c53 -49 61 -152 18 -207 -45 -57 -146 -16 -163 65 -28 143 57 226 145 142z m261 13 c10 -6 18 -15 18 -21 1 -5 5 -29 9 -52 l8 -43 -48 0 c-37 0 -49 4 -49 15 0 10 11 15 35 15 33 0 35 1 29 28 -4 15 -13 33 -22 40 -24 18 -69 15 -92 -8 -38 -38 -19 -149 31 -184 33 -22 56 -20 85 9 29 29 34 31 34 10 0 -28 -38 -55 -78 -55 -111 0 -160 219 -58 260 23 10 71 3 98 -14z m-1943 -68 c23 -160 18 -148 62 -148 28 0 39 -4 39 -15 0 -12 -16 -15 -85 -15 -69 0 -85 3 -85 15 0 11 11 15 36 15 33 0 35 2 30 28 -2 15 -10 59 -16 97 -6 39 -13 78 -15 88 -2 9 2 17 9 17 8 0 17 -30 25 -82z m281 72 c0 -6 -28 -10 -65 -10 l-65 0 0 -34 c0 -61 6 -66 76 -66 50 0 64 -3 64 -15 0 -12 -14 -15 -64 -15 l-64 0 10 -40 10 -40 64 0 c50 0 64 -3 64 -15 0 -12 -15 -15 -75 -15 -69 0 -75 2 -79 23 -8 37 -36 214 -36 226 0 7 27 11 80 11 47 0 80 -4 80 -10z m334 -53 l9 -57 59 0 c64 0 61 -3 49 73 -6 36 -5 47 6 47 7 0 13 -3 13 -7 0 -5 9 -62 20 -128 10 -65 17 -121 15 -123 -10 -10 -25 12 -25 36 0 65 -7 72 -72 72 -57 0 -60 -1 -55 -22 18 -78 18 -88 5 -88 -10 0 -19 31 -31 108 -10 59 -20 118 -24 131 -4 18 -2 23 8 19 8 -3 18 -28 23 -61z m243 -8 c7 -35 16 -82 20 -104 l8 -40 23 65 c13 36 30 84 38 108 21 56 40 54 48 -5 4 -27 14 -83 23 -126 13 -70 13 -100 -2 -85 -9 8 -35 140 -35 176 0 17 -3 32 -8 32 -4 0 -23 -46 -42 -102 -52 -154 -58 -148 -98 100 -13 78 10 61 25 -19z m603 61 c0 -5 -23 -10 -50 -10 -35 0 -52 -4 -56 -15 -5 -12 9 -103 31 -202 4 -16 1 -23 -10 -23 -8 0 -15 3 -15 8 0 4 -9 61 -20 127 -11 66 -20 121 -20 123 0 1 32 2 70 2 40 0 70 -4 70 -10z m674 -37 c4 -29 22 -73 50 -117 60 -99 59 -96 44 -96 -7 0 -32 30 -55 66 -40 63 -43 66 -52 43 -32 -83 -44 -109 -52 -109 -15 0 -11 18 21 91 28 62 30 74 22 119 -7 38 -6 50 3 50 7 0 15 -20 19 -47z m194 35 c22 -22 13 -47 -25 -65 -44 -21 -51 -38 -24 -52 15 -8 23 -7 35 5 9 8 16 11 16 5 0 -15 -36 -32 -54 -25 -39 15 -28 59 21 79 24 10 34 20 31 32 -5 25 -46 29 -63 6 -8 -10 -15 -13 -15 -7 0 17 22 34 45 34 12 0 26 -5 33 -12z m174 -35 c5 -7 5 -13 0 -17 -10 -6 -23 27 -21 54 1 8 3 6 6 -5 3 -11 9 -25 15 -32z m57 -10 c-29 -88 -29 -87 -38 -77 -5 5 -12 20 -15 34 l-7 25 14 -24 15 -24 7 23 c4 12 8 28 10 34 4 20 24 66 29 66 3 0 -4 -26 -15 -57z m96 -263 c4 -7 -450 -10 -1354 -10 -901 0 -1361 3 -1361 10 0 14 2706 14 2715 0z m-112 -65 c21 -3 53 -15 71 -26 27 -16 35 -28 40 -62 4 -23 9 -51 12 -62 5 -20 1 -21 -68 -17 -40 2 -73 5 -74 6 -1 0 -4 13 -8 29 -6 25 -4 27 24 27 42 0 38 24 -6 38 -24 7 -44 8 -61 1 -25 -9 -25 -12 -20 -67 5 -45 12 -62 32 -79 30 -27 67 -30 85 -7 10 11 23 14 54 9 53 -9 60 -16 45 -49 -24 -51 -167 -60 -231 -15 -81 58 -111 181 -60 247 19 24 71 42 107 36 11 -1 37 -6 58 -9z m-1579 -11 c3 -9 6 -24 6 -35 0 -17 -8 -19 -75 -19 l-75 0 0 -30 0 -30 75 0 c74 0 75 0 75 26 0 25 1 26 65 22 55 -2 64 -1 59 12 -4 8 -9 27 -12 43 -4 26 -2 27 36 27 38 0 41 -2 47 -32 21 -106 29 -138 37 -138 4 0 8 38 8 85 l0 85 38 0 38 0 44 -96 c25 -53 47 -97 51 -99 3 -2 -3 26 -12 63 -10 37 -18 82 -18 100 -1 32 0 33 37 30 35 -3 37 -5 44 -43 3 -22 17 -87 31 -145 14 -58 24 -106 23 -106 0 -1 -29 -4 -63 -6 l-61 -4 -38 80 -38 81 -9 -81 -9 -81 -56 5 c-60 4 -82 20 -82 55 0 11 -5 37 -12 58 l-11 39 -64 0 c-61 0 -63 -1 -63 -25 0 -24 -2 -25 -69 -25 -64 0 -69 -1 -64 -20 5 -18 14 -20 83 -20 62 0 79 -3 84 -16 16 -42 11 -44 -104 -44 -60 0 -110 -3 -110 -7 1 -5 26 -26 57 -48 80 -58 213 -202 246 -267 21 -41 27 -67 25 -99 -3 -39 -6 -44 -30 -47 -18 -2 -28 -11 -32 -28 -5 -19 -13 -24 -36 -24 -17 0 -30 -4 -30 -9 0 -15 -30 -41 -48 -41 -13 0 -12 4 5 20 76 70 -131 325 -382 472 -90 53 -231 112 -245 103 -5 -3 38 -30 95 -60 238 -123 384 -252 474 -418 48 -89 39 -138 -23 -136 -24 1 -26 3 -8 6 12 2 27 13 32 24 14 24 11 24 -61 -6 -177 -75 -360 -69 -544 19 -149 70 -269 207 -333 379 -26 68 -28 109 -4 54 l17 -39 31 44 c17 23 45 73 62 109 18 38 40 70 54 77 13 6 17 11 11 11 -7 1 -13 5 -13 11 0 5 12 7 28 4 31 -5 58 8 48 25 -4 6 -17 12 -29 12 -13 1 -7 4 13 8 38 7 54 36 23 44 -10 3 -1 3 20 2 33 -3 39 0 53 27 17 32 30 28 36 -11 3 -20 17 -27 118 -57 63 -19 164 -58 223 -87 59 -29 109 -52 111 -50 2 2 -7 43 -20 90 -13 48 -21 89 -19 91 2 3 1 12 -4 21 -4 9 -11 31 -14 49 l-6 32 128 0 c108 0 130 -3 135 -16z m589 -16 c3 -18 17 -87 31 -152 14 -66 25 -120 23 -121 -1 -1 -23 0 -48 3 l-46 4 -26 116 c-15 65 -29 132 -33 150 l-6 32 50 0 c48 0 50 -1 55 -32z m123 -23 c7 -27 13 -60 14 -72 0 -40 14 -25 49 52 l34 75 48 0 c38 0 49 -4 49 -16 0 -9 11 -62 24 -118 41 -176 42 -163 -7 -168 -23 -3 -45 0 -49 6 -4 5 -10 33 -14 61 -12 90 -17 93 -47 28 -15 -32 -31 -65 -36 -73 -5 -9 -26 -16 -54 -18 -44 -3 -47 -1 -53 25 -3 15 -8 35 -11 43 -3 8 -7 24 -9 35 -2 11 -12 60 -22 108 l-19 88 45 -3 c45 -3 45 -3 58 -53z m323 18 c5 -21 14 -63 20 -93 6 -30 17 -81 24 -112 8 -32 13 -59 11 -61 -2 -2 -25 -1 -51 3 -53 6 -45 -12 -82 164 -30 138 -30 136 24 136 43 0 45 -1 54 -37z m115 20 c2 -10 10 -44 16 -75 6 -32 13 -58 15 -58 3 0 21 34 41 75 l37 76 46 -3 46 -3 23 -110 c13 -60 26 -127 29 -147 l6 -38 -41 0 c-48 0 -49 2 -62 71 -6 29 -14 57 -20 63 -5 5 -21 -19 -41 -63 l-32 -71 -44 0 c-50 0 -54 6 -73 110 -7 36 -16 76 -20 90 -5 14 -11 42 -14 63 l-5 37 44 0 c33 0 45 -4 49 -17z"/>
 <path d="M1391 1344 c-37 -48 -19 -145 33 -179 86 -57 142 93 66 175 -35 38 -71 39 -99 4z"/>
 <path d="M1841 1344 c-24 -30 -28 -95 -8 -133 19 -38 61 -65 91 -57 33 8 49 40 48 92 -1 101 -82 161 -131 98z"/>
 <path d="M598 858 c15 -18 82 -51 180 -89 237 -91 491 -312 547 -476 18 -52 49 -53 53 -1 4 43 -14 81 -74 159 -124 162 -353 310 -600 388 -108 35 -121 37 -106 19z"/>
 <path d="M650 772 c0 -13 17 -25 58 -42 245 -99 488 -315 547 -487 14 -42 35 -52 55 -28 32 39 -44 169 -170 289 -117 112 -290 220 -429 267 -66 23 -61 23 -61 1z"/>
 <path d="M690 616 c0 -19 8 -27 35 -36 29 -9 35 -17 35 -39 0 -15 -5 -32 -12 -39 -8 -8 -4 -20 16 -47 30 -40 34 -41 62 -20 23 18 56 19 72 3 28 -28 6 -104 -39 -133 -17 -11 -44 -43 -60 -71 -16 -29 -39 -54 -50 -57 -13 -4 -19 -12 -17 -24 8 -43 224 -38 361 9 81 27 84 31 63 74 -58 122 -249 299 -413 383 -53 26 -53 26 -53 -3z"/>
 <path d="M415 536 c-17 -7 -36 -20 -44 -29 -8 -11 -28 -17 -52 -17 -22 0 -39 -4 -39 -9 0 -5 20 -35 44 -67 79 -107 207 -214 254 -214 64 0 125 124 102 209 -13 50 -63 109 -107 127 -41 17 -119 17 -158 0z"/>
 </g>
<g id="layer113" fill="#fac190" stroke="none">
 <path d="M0 750 l0 -750 1560 0 1560 0 0 750 0 750 -1560 0 -1560 0 0 -750z m767 618 c24 -22 36 -55 23 -63 -5 -3 -14 3 -19 14 -29 54 -78 68 -105 29 -20 -28 -21 -98 -1 -143 24 -59 94 -70 117 -19 13 28 28 32 28 7 0 -31 -41 -63 -81 -63 -111 0 -153 224 -49 263 23 9 63 -2 87 -25z m708 18 c72 -30 101 -163 49 -225 -46 -55 -124 -39 -158 33 -33 69 -13 176 37 196 30 12 33 12 72 -4z m452 -3 c72 -34 97 -170 43 -228 -31 -33 -88 -34 -125 -2 -36 30 -57 112 -43 164 12 44 25 62 53 73 29 12 33 12 72 -7z m285 -4 c9 -5 20 -26 23 -47 3 -20 8 -45 10 -54 3 -15 -5 -18 -46 -18 -37 0 -49 4 -49 15 0 10 10 15 30 15 26 0 30 4 30 28 0 50 -73 69 -110 30 -41 -44 -15 -159 43 -186 34 -17 65 -7 79 24 14 29 28 31 28 4 0 -34 -35 -60 -81 -60 -55 0 -93 40 -110 114 -10 48 -10 58 7 92 29 60 83 76 146 43z m-1947 -41 c4 -29 13 -80 20 -113 12 -59 12 -60 48 -63 24 -2 37 -8 37 -18 0 -11 -18 -14 -85 -14 -69 0 -85 3 -85 15 0 11 11 15 36 15 34 0 35 2 30 28 -3 15 -10 56 -16 92 -6 36 -14 75 -17 88 -4 15 -1 22 10 22 11 0 17 -15 22 -52z m285 37 c0 -12 -14 -15 -65 -15 -61 0 -65 -1 -65 -22 1 -62 8 -68 76 -68 50 0 64 -3 64 -15 0 -12 -13 -15 -60 -15 -64 0 -68 -4 -54 -57 6 -21 12 -23 70 -23 50 0 64 -3 64 -15 0 -12 -15 -15 -75 -15 -84 0 -75 -11 -95 110 -6 36 -14 84 -19 108 l-8 42 83 0 c68 0 84 -3 84 -15z m335 -45 l7 -60 60 0 60 0 -7 43 c-3 23 -9 50 -11 60 -4 11 0 17 10 17 9 0 16 -3 16 -7 0 -5 9 -62 20 -127 11 -65 18 -121 16 -124 -12 -11 -24 12 -30 58 l-7 50 -60 0 c-53 0 -60 -2 -56 -17 16 -58 17 -93 3 -93 -10 0 -16 17 -21 53 -4 28 -13 81 -21 117 -17 82 -17 90 0 90 10 0 16 -19 21 -60z m235 53 c0 -17 31 -197 34 -201 2 -2 12 21 21 50 37 113 57 158 69 158 8 0 19 -32 29 -87 29 -160 31 -176 16 -171 -9 3 -20 41 -30 104 -9 54 -18 101 -18 104 -1 3 -18 -40 -37 -95 -19 -55 -38 -103 -43 -108 -16 -16 -28 1 -35 45 -3 24 -12 80 -20 126 -11 69 -11 82 0 82 8 0 14 -3 14 -7z m610 -8 c0 -12 -13 -15 -55 -15 -30 0 -55 -3 -55 -7 0 -5 7 -44 15 -88 8 -44 17 -92 20 -107 3 -20 0 -28 -10 -28 -8 0 -15 4 -15 9 0 5 -9 60 -20 122 -11 63 -20 117 -20 122 0 4 32 7 70 7 56 0 70 -3 70 -15z m674 -31 c4 -29 21 -71 44 -108 60 -95 65 -106 49 -106 -8 0 -32 29 -54 65 l-40 65 -28 -65 c-15 -36 -33 -65 -41 -65 -9 0 -4 23 21 82 20 47 33 91 30 105 -3 12 -7 34 -10 48 -4 17 -1 25 8 25 9 0 17 -17 21 -46z m196 31 c19 -23 7 -49 -30 -66 -42 -20 -45 -43 -7 -47 20 -2 27 1 27 13 0 9 5 13 11 9 7 -4 4 -13 -10 -27 -17 -18 -24 -19 -46 -9 -37 17 -30 52 15 73 38 18 44 36 18 52 -13 9 -22 7 -37 -7 -22 -20 -25 -18 -15 8 8 20 57 21 74 1z m87 8 c-4 -3 -10 -3 -14 0 -3 4 0 7 7 7 7 0 10 -3 7 -7z m87 -35 c23 -15 46 -8 52 17 3 14 11 25 16 25 5 0 8 -6 5 -12 -3 -7 -13 -39 -23 -70 -11 -32 -23 -58 -29 -58 -10 0 -46 108 -44 132 1 7 4 4 6 -7 3 -11 10 -23 17 -27z m151 -278 c4 -7 -450 -10 -1354 -10 -901 0 -1361 3 -1361 10 0 14 2706 14 2715 0z m-112 -65 c21 -3 53 -14 70 -24 27 -15 33 -27 44 -77 7 -32 12 -61 13 -64 0 -3 -34 -5 -75 -5 -63 0 -75 3 -75 17 0 9 -3 23 -6 32 -5 13 1 16 25 16 43 0 40 24 -5 38 -24 7 -44 8 -61 1 -25 -9 -25 -12 -20 -67 5 -45 12 -62 32 -79 30 -27 61 -29 85 -8 12 11 29 13 63 9 50 -7 54 -12 35 -47 -19 -37 -40 -45 -113 -45 -85 0 -129 24 -176 96 -17 26 -28 39 -25 30 3 -10 8 -40 12 -68 l7 -50 -41 0 c-48 0 -49 2 -62 71 -14 73 -26 81 -45 33 -39 -96 -46 -104 -92 -104 -36 0 -45 4 -52 23 -9 20 -42 171 -55 245 l-5 32 44 0 c48 0 46 3 65 -92 6 -32 13 -58 15 -58 3 0 21 34 41 75 l37 76 46 -3 45 -3 17 -75 c12 -54 17 -65 18 -42 1 36 26 98 44 109 17 10 71 21 92 17 11 -1 37 -6 58 -9z m-1575 -27 c5 -18 7 -36 5 -40 -2 -5 -38 -8 -79 -8 -72 0 -74 -1 -74 -25 0 -24 2 -25 75 -25 74 0 75 0 75 26 0 25 1 26 65 22 55 -2 64 -1 59 12 -4 8 -9 27 -12 43 -4 26 -2 27 36 27 45 0 45 1 62 -97 7 -40 17 -70 22 -67 4 3 8 41 8 85 l0 79 38 0 38 0 47 -100 c26 -55 49 -100 50 -100 2 0 -5 30 -14 68 -10 37 -18 82 -18 100 -1 32 0 33 37 30 35 -3 37 -5 44 -43 3 -22 17 -87 31 -145 14 -58 24 -106 23 -106 0 -1 -29 -4 -63 -6 l-61 -4 -38 80 -38 81 -8 -80 c-5 -43 -10 -80 -11 -80 -1 -1 -29 1 -62 4 -66 7 -60 0 -86 104 l-12 47 -64 0 c-61 0 -64 -1 -61 -22 3 -22 -1 -23 -68 -26 -66 -3 -71 -5 -67 -22 5 -18 14 -20 83 -20 62 0 79 -3 84 -16 16 -42 11 -44 -104 -44 -60 0 -110 -3 -110 -7 1 -5 26 -26 57 -48 80 -58 213 -202 246 -267 21 -41 27 -67 25 -99 -3 -39 -6 -44 -30 -47 -18 -2 -28 -11 -32 -28 -5 -19 -13 -24 -36 -24 -17 0 -30 -4 -30 -9 0 -15 -30 -41 -48 -41 -13 0 -12 4 5 20 76 70 -131 325 -382 472 -90 53 -231 112 -245 103 -5 -3 38 -30 95 -60 238 -123 384 -252 474 -418 48 -89 39 -138 -23 -136 -24 1 -26 3 -8 6 12 2 27 13 32 24 14 24 11 24 -61 -6 -177 -75 -360 -69 -544 19 -149 70 -269 207 -333 379 -26 68 -28 109 -4 54 l17 -39 31 44 c17 23 45 73 62 109 18 38 40 70 54 77 13 6 17 11 11 11 -7 1 -13 5 -13 11 0 5 12 7 28 4 31 -5 58 8 48 25 -4 6 -17 12 -29 12 -13 1 -7 4 13 8 38 7 54 36 23 44 -10 3 -1 3 20 2 33 -3 39 0 53 27 17 32 30 28 36 -11 3 -20 17 -27 118 -57 63 -19 164 -58 223 -87 59 -29 109 -52 111 -50 2 2 -7 43 -20 90 -13 48 -21 89 -19 91 2 3 1 12 -4 21 -4 9 -11 31 -14 49 l-6 32 129 0 129 0 9 -32z m596 -50 c28 -128 46 -221 44 -223 -2 -1 -24 0 -51 3 -38 3 -48 8 -51 26 -22 108 -49 226 -56 249 l-8 27 52 0 52 0 18 -82z m100 70 c2 -7 9 -31 14 -53 6 -22 14 -51 18 -64 5 -21 11 -14 42 52 l35 77 46 0 46 0 29 -132 c15 -73 30 -140 32 -149 4 -13 -5 -18 -38 -21 -24 -3 -46 0 -50 6 -4 5 -10 33 -14 61 -11 82 -17 90 -36 53 -10 -18 -26 -53 -36 -78 l-19 -45 -46 3 c-42 4 -47 7 -57 36 -6 18 -13 46 -15 62 -9 50 -32 158 -39 182 -7 21 -5 22 39 22 28 0 47 -5 49 -12z m335 -25 c5 -21 13 -56 17 -78 3 -22 15 -71 25 -109 10 -38 17 -72 14 -75 -2 -4 -25 -5 -51 -2 -44 5 -49 9 -55 36 -4 17 -16 75 -28 130 -12 55 -25 108 -27 118 -5 15 2 17 45 17 50 0 50 0 60 -37z"/>
 <path d="M1399 1351 c-20 -16 -24 -28 -23 -75 2 -83 44 -134 98 -120 84 21 51 214 -37 214 -8 0 -25 -9 -38 -19z"/>
 <path d="M1845 1345 c-45 -44 -23 -151 37 -185 25 -13 29 -13 55 6 65 49 28 204 -50 204 -10 0 -29 -11 -42 -25z"/>
 <path d="M2780 1316 c0 -8 3 -22 6 -31 5 -13 8 -14 15 -3 14 21 10 48 -6 48 -8 0 -15 -6 -15 -14z"/>
 <path d="M598 858 c15 -18 82 -51 180 -89 237 -91 491 -312 547 -476 18 -52 49 -53 53 -1 4 43 -14 81 -74 159 -124 162 -353 310 -600 388 -108 35 -121 37 -106 19z"/>
 <path d="M650 772 c0 -13 17 -25 58 -42 245 -99 488 -315 547 -487 14 -42 35 -52 55 -28 32 39 -44 169 -170 289 -117 112 -290 220 -429 267 -66 23 -61 23 -61 1z"/>
 <path d="M690 616 c0 -19 8 -27 35 -36 29 -9 35 -17 35 -39 0 -15 -5 -32 -12 -39 -8 -8 -4 -20 16 -47 30 -40 34 -41 62 -20 23 18 56 19 72 3 28 -28 6 -104 -39 -133 -17 -11 -44 -43 -60 -71 -16 -29 -39 -54 -50 -57 -13 -4 -19 -12 -17 -24 8 -43 224 -38 361 9 81 27 84 31 63 74 -58 122 -249 299 -413 383 -53 26 -53 26 -53 -3z"/>
 <path d="M415 536 c-17 -7 -36 -20 -44 -29 -8 -11 -28 -17 -52 -17 -22 0 -39 -4 -39 -9 0 -5 20 -35 44 -67 79 -107 207 -214 254 -214 64 0 125 124 102 209 -13 50 -63 109 -107 127 -41 17 -119 17 -158 0z"/>
 </g>
<g id="layer114" fill="#cfd0d2" stroke="none">
 <path d="M0 750 l0 -750 1560 0 1560 0 0 750 0 750 -1560 0 -1560 0 0 -750z m767 618 c24 -22 36 -55 23 -63 -5 -3 -14 3 -19 14 -29 54 -78 68 -105 29 -20 -28 -21 -98 -1 -143 24 -59 94 -70 117 -19 13 28 28 32 28 7 0 -31 -41 -63 -81 -63 -111 0 -153 224 -49 263 23 9 63 -2 87 -25z m708 18 c72 -30 101 -163 49 -225 -46 -55 -124 -39 -158 33 -33 69 -13 176 37 196 30 12 33 12 72 -4z m452 -3 c72 -34 97 -170 43 -228 -31 -33 -88 -34 -125 -2 -36 30 -57 112 -43 164 12 44 25 62 53 73 29 12 33 12 72 -7z m285 -4 c9 -5 20 -26 23 -47 3 -20 8 -45 10 -54 3 -15 -5 -18 -46 -18 -37 0 -49 4 -49 15 0 10 10 15 30 15 26 0 30 4 30 28 0 50 -73 69 -110 30 -41 -44 -15 -159 43 -186 34 -17 65 -7 79 24 14 29 28 31 28 4 0 -34 -35 -60 -81 -60 -55 0 -93 40 -110 114 -10 48 -10 58 7 92 29 60 83 76 146 43z m-1947 -41 c4 -29 13 -80 20 -113 12 -59 12 -60 48 -63 24 -2 37 -8 37 -18 0 -11 -18 -14 -85 -14 -69 0 -85 3 -85 15 0 11 11 15 36 15 34 0 35 2 30 28 -3 15 -10 56 -16 92 -6 36 -14 75 -17 88 -4 15 -1 22 10 22 11 0 17 -15 22 -52z m285 37 c0 -12 -14 -15 -65 -15 -61 0 -65 -1 -65 -22 1 -62 8 -68 76 -68 50 0 64 -3 64 -15 0 -12 -13 -15 -60 -15 -64 0 -68 -4 -54 -57 6 -21 12 -23 70 -23 50 0 64 -3 64 -15 0 -12 -15 -15 -75 -15 -84 0 -75 -11 -95 110 -6 36 -14 84 -19 108 l-8 42 83 0 c68 0 84 -3 84 -15z m335 -45 l7 -60 60 0 60 0 -7 43 c-3 23 -9 50 -11 60 -4 11 0 17 10 17 9 0 16 -3 16 -7 0 -5 9 -62 20 -127 11 -65 18 -121 16 -124 -12 -11 -24 12 -30 58 l-7 50 -60 0 c-53 0 -60 -2 -56 -17 16 -58 17 -93 3 -93 -10 0 -16 17 -21 53 -4 28 -13 81 -21 117 -17 82 -17 90 0 90 10 0 16 -19 21 -60z m235 53 c0 -17 31 -197 34 -201 2 -2 12 21 21 50 37 113 57 158 69 158 8 0 19 -32 29 -87 29 -160 31 -176 16 -171 -9 3 -20 41 -30 104 -9 54 -18 101 -18 104 -1 3 -18 -40 -37 -95 -19 -55 -38 -103 -43 -108 -16 -16 -28 1 -35 45 -3 24 -12 80 -20 126 -11 69 -11 82 0 82 8 0 14 -3 14 -7z m610 -8 c0 -12 -13 -15 -55 -15 -30 0 -55 -3 -55 -7 0 -5 7 -44 15 -88 8 -44 17 -92 20 -107 3 -20 0 -28 -10 -28 -8 0 -15 4 -15 9 0 5 -9 60 -20 122 -11 63 -20 117 -20 122 0 4 32 7 70 7 56 0 70 -3 70 -15z m674 -31 c4 -29 21 -71 44 -108 60 -95 65 -106 49 -106 -8 0 -32 29 -54 65 l-40 65 -28 -65 c-15 -36 -33 -65 -41 -65 -9 0 -4 23 21 82 20 47 33 91 30 105 -3 12 -7 34 -10 48 -4 17 -1 25 8 25 9 0 17 -17 21 -46z m196 31 c19 -23 7 -49 -30 -66 -42 -20 -45 -43 -7 -47 20 -2 27 1 27 13 0 9 5 13 11 9 7 -4 4 -13 -10 -27 -17 -18 -24 -19 -46 -9 -37 17 -30 52 15 73 38 18 44 36 18 52 -13 9 -22 7 -37 -7 -22 -20 -25 -18 -15 8 8 20 57 21 74 1z m87 8 c-4 -3 -10 -3 -14 0 -3 4 0 7 7 7 7 0 10 -3 7 -7z m87 -35 c23 -15 46 -8 52 17 3 14 11 25 16 25 5 0 8 -6 5 -12 -3 -7 -13 -39 -23 -70 -11 -32 -23 -58 -29 -58 -10 0 -46 108 -44 132 1 7 4 4 6 -7 3 -11 10 -23 17 -27z m151 -278 c4 -7 -452 -10 -1360 -10 -908 0 -1364 3 -1360 10 4 7 468 10 1360 10 892 0 1356 -3 1360 -10z m-112 -65 c21 -3 53 -14 70 -24 27 -15 33 -27 44 -77 7 -32 12 -61 13 -64 0 -3 -34 -5 -75 -5 -63 0 -75 3 -75 17 0 9 -3 23 -6 32 -5 13 1 16 25 16 43 0 40 24 -5 38 -24 7 -44 8 -61 1 -25 -9 -25 -12 -20 -67 5 -45 12 -62 32 -79 30 -27 61 -29 85 -8 12 11 29 13 63 9 50 -7 54 -12 35 -47 -19 -37 -40 -45 -113 -45 -85 0 -129 24 -176 96 -17 26 -28 39 -25 30 3 -10 8 -40 12 -68 l7 -50 -41 0 c-48 0 -49 2 -62 71 -14 73 -26 81 -45 33 -39 -96 -46 -104 -92 -104 -36 0 -45 4 -52 23 -9 20 -42 171 -55 245 l-5 32 44 0 c48 0 46 3 65 -92 6 -32 13 -58 15 -58 3 0 21 34 41 75 l37 76 46 -3 45 -3 17 -75 c12 -54 17 -65 18 -42 1 36 26 98 44 109 17 10 71 21 92 17 11 -1 37 -6 58 -9z m-1575 -27 c5 -18 7 -36 5 -40 -2 -5 -38 -8 -79 -8 -72 0 -74 -1 -74 -25 0 -24 2 -25 75 -25 74 0 75 0 75 26 0 25 1 26 65 22 55 -2 64 -1 59 12 -4 8 -9 27 -12 43 -4 26 -2 27 36 27 45 0 45 1 62 -97 7 -40 17 -70 22 -67 4 3 8 41 8 85 l0 79 38 0 38 0 47 -100 c26 -55 49 -100 50 -100 2 0 -5 30 -14 68 -10 37 -18 82 -18 100 -1 32 0 33 37 30 35 -3 37 -5 44 -43 3 -22 17 -87 31 -145 14 -58 24 -106 23 -106 0 -1 -29 -4 -63 -6 l-61 -4 -38 80 -38 81 -8 -80 c-5 -43 -10 -80 -11 -80 -1 -1 -29 1 -62 4 -66 7 -60 0 -86 104 l-12 47 -64 0 c-61 0 -64 -1 -61 -22 3 -22 -1 -23 -68 -26 -66 -3 -71 -5 -67 -22 5 -18 14 -20 83 -20 62 0 79 -3 84 -16 16 -42 11 -44 -104 -44 -60 0 -110 -3 -110 -7 0 -5 22 -22 48 -40 211 -144 374 -423 246 -423 -15 0 -24 -8 -28 -25 -5 -20 -13 -25 -36 -25 -20 0 -31 -6 -35 -19 -6 -21 -38 -36 -54 -27 -5 3 -14 -1 -21 -9 -7 -8 -27 -14 -44 -14 -23 1 -25 3 -8 6 12 2 27 13 32 24 13 24 9 24 -38 0 -80 -40 -153 -55 -272 -56 -101 0 -126 4 -204 29 -105 35 -214 103 -280 177 -84 93 -157 235 -170 329 l-6 45 20 -54 c11 -30 22 -56 24 -58 5 -5 67 93 92 148 l22 46 -32 16 -31 16 43 -5 c48 -5 72 3 51 17 -8 5 -24 9 -36 9 -13 0 -23 4 -23 10 0 5 14 7 30 5 17 -3 43 -7 58 -9 30 -5 61 8 49 20 -4 4 -33 13 -65 20 l-57 13 70 -2 c56 -2 70 1 70 13 0 8 -13 18 -30 22 -21 5 -13 6 24 4 51 -3 54 -2 65 25 12 34 36 38 36 7 0 -36 11 -44 85 -62 85 -21 231 -78 304 -118 29 -16 55 -27 58 -24 3 3 -2 38 -12 78 -10 40 -19 80 -20 88 -2 14 -12 56 -22 93 -4 16 7 17 126 17 l130 0 9 -32z m596 -50 c28 -128 46 -221 44 -223 -2 -1 -24 0 -51 3 -38 3 -48 8 -51 26 -22 108 -49 226 -56 249 l-8 27 52 0 52 0 18 -82z m100 70 c2 -7 9 -31 14 -53 6 -22 14 -51 18 -64 5 -21 11 -14 42 52 l35 77 46 0 46 0 29 -132 c15 -73 30 -140 32 -149 4 -13 -5 -18 -38 -21 -24 -3 -46 0 -50 6 -4 5 -10 33 -14 61 -11 82 -17 90 -36 53 -10 -18 -26 -53 -36 -78 l-19 -45 -46 3 c-42 4 -47 7 -57 36 -6 18 -13 46 -15 62 -9 50 -32 158 -39 182 -7 21 -5 22 39 22 28 0 47 -5 49 -12z m335 -25 c5 -21 13 -56 17 -78 3 -22 15 -71 25 -109 10 -38 17 -72 14 -75 -2 -4 -25 -5 -51 -2 -44 5 -49 9 -55 36 -4 17 -16 75 -28 130 -12 55 -25 108 -27 118 -5 15 2 17 45 17 50 0 50 0 60 -37z m-1866 -60 c-7 -2 -19 -2 -25 0 -7 3 -2 5 12 5 14 0 19 -2 13 -5z"/>
 <path d="M1399 1351 c-20 -16 -24 -28 -23 -75 2 -83 44 -134 98 -120 84 21 51 214 -37 214 -8 0 -25 -9 -38 -19z"/>
 <path d="M1845 1345 c-45 -44 -23 -151 37 -185 25 -13 29 -13 55 6 65 49 28 204 -50 204 -10 0 -29 -11 -42 -25z"/>
 <path d="M2780 1316 c0 -8 3 -22 6 -31 5 -13 8 -14 15 -3 14 21 10 48 -6 48 -8 0 -15 -6 -15 -14z"/>
 <path d="M599 857 c7 -9 18 -17 24 -17 6 0 18 -6 26 -13 9 -7 34 -19 56 -26 264 -87 558 -328 620 -508 9 -25 19 -38 32 -38 15 0 18 8 17 45 0 58 -45 129 -145 229 -146 147 -357 266 -567 321 -24 6 -51 14 -60 17 -15 6 -15 5 -3 -10z"/>
 <path d="M650 773 c0 -13 24 -28 89 -56 164 -70 318 -185 423 -316 62 -77 101 -147 107 -191 2 -15 27 -12 41 5 19 22 -12 99 -71 177 -102 136 -277 271 -452 346 -126 55 -137 58 -137 35z"/>
 <path d="M600 732 c0 -4 39 -27 88 -51 224 -111 406 -270 480 -418 29 -58 30 -59 55 -41 16 12 16 16 -4 53 -90 171 -313 348 -557 444 -59 24 -62 24 -62 13z"/>
 <path d="M690 616 c0 -19 8 -27 35 -36 28 -9 35 -17 35 -36 0 -14 -4 -34 -10 -44 -8 -14 -3 -25 20 -50 28 -30 32 -31 53 -18 63 41 94 20 82 -57 -5 -34 -13 -48 -41 -67 -19 -12 -46 -43 -61 -68 -14 -25 -35 -52 -46 -61 -78 -63 155 -76 328 -19 84 28 88 31 75 64 -26 70 -124 186 -225 266 -61 48 -221 150 -237 150 -4 0 -8 -11 -8 -24z"/>
 <path d="M416 485 c-34 -23 -39 -24 -59 -10 -20 14 -77 21 -77 10 0 -3 12 -24 27 -48 37 -59 137 -161 194 -197 l47 -31 35 33 c46 44 59 71 59 125 0 113 -132 182 -226 118z"/>
 <path d="M1212 198 c-18 -18 -14 -38 8 -38 15 0 20 7 20 25 0 27 -9 32 -28 13z"/>
 </g>
<g id="layer115" fill="#fbd4b1" stroke="none">
 <path d="M0 750 l0 -750 1560 0 1560 0 0 750 0 750 -1560 0 -1560 0 0 -750z m749 636 c40 -21 67 -86 36 -86 -8 0 -15 5 -15 10 0 17 -47 60 -65 60 -30 0 -55 -38 -55 -82 0 -104 94 -178 129 -102 13 29 31 31 31 4 0 -27 -43 -70 -70 -70 -66 0 -120 72 -120 159 0 59 14 95 44 109 30 15 53 14 85 -2z m753 -13 c50 -45 68 -154 34 -205 -44 -67 -132 -55 -171 22 -50 101 -2 220 84 206 18 -3 42 -13 53 -23z m434 8 c39 -24 64 -76 64 -135 0 -58 -17 -94 -51 -112 -43 -22 -68 -17 -104 19 -62 62 -69 164 -15 219 33 33 63 35 106 9z m272 -1 c23 -14 32 -27 32 -47 0 -16 3 -38 6 -50 6 -22 3 -23 -45 -23 -39 0 -51 4 -51 15 0 10 10 15 31 15 27 0 30 3 27 27 -4 40 -51 62 -87 42 -22 -13 -26 -23 -29 -71 -4 -70 16 -112 59 -127 29 -10 34 -8 59 19 34 36 54 39 45 8 -9 -31 -51 -68 -78 -68 -32 0 -84 35 -101 69 -36 69 -28 164 17 196 30 21 76 19 115 -5z m383 10 c12 -7 19 -21 19 -40 0 -24 -6 -30 -35 -40 -37 -12 -46 -36 -19 -47 10 -4 22 1 30 12 15 21 30 14 21 -9 -8 -21 -54 -31 -72 -16 -28 23 -18 58 20 74 19 8 35 21 35 29 0 24 -29 28 -50 7 -20 -20 -20 -20 -20 0 0 10 8 24 18 29 22 13 29 13 53 1z m-2331 -4 c0 -7 30 -181 35 -203 4 -19 12 -23 40 -23 24 0 35 -5 35 -15 0 -12 -16 -15 -85 -15 -69 0 -85 3 -85 15 0 10 10 15 30 15 35 0 35 0 15 125 -18 110 -18 105 0 105 8 0 15 -2 15 -4z m290 -11 c0 -12 -14 -15 -66 -15 l-66 0 7 -37 c4 -21 9 -41 11 -45 3 -5 32 -8 65 -8 46 0 59 -3 59 -15 0 -12 -13 -15 -60 -15 -33 0 -60 -4 -60 -9 0 -5 3 -23 6 -40 6 -31 7 -31 70 -31 50 0 64 -3 64 -15 0 -12 -15 -15 -78 -15 l-78 0 -18 113 c-9 61 -19 120 -22 130 -5 15 3 17 80 17 70 0 86 -3 86 -15z m339 -45 l12 -60 56 0 c53 0 55 1 49 23 -18 64 -19 97 -3 97 16 0 26 -35 47 -165 13 -80 13 -95 -4 -95 -10 0 -17 17 -21 55 l-7 55 -58 0 -57 0 8 -42 c11 -60 11 -68 -5 -68 -16 0 -19 13 -41 145 -18 111 -18 115 -1 115 8 0 18 -22 25 -60z m240 8 c6 -29 14 -75 19 -103 l8 -50 34 100 c42 121 63 135 79 53 38 -191 39 -208 22 -208 -13 0 -20 22 -35 103 l-19 102 -34 -102 c-27 -79 -39 -103 -52 -103 -15 0 -21 18 -36 103 -10 56 -20 114 -22 130 -4 20 -1 27 10 27 11 0 19 -16 26 -52z m601 37 c0 -12 -13 -15 -55 -15 -54 0 -54 0 -50 -27 3 -16 12 -64 20 -108 18 -98 18 -95 1 -95 -18 0 -21 11 -41 132 -21 139 -26 128 55 128 56 0 70 -3 70 -15z m674 -7 c3 -13 6 -32 6 -44 0 -11 25 -59 55 -107 44 -71 51 -87 36 -87 -11 0 -34 24 -59 61 -40 58 -42 60 -51 38 -28 -75 -42 -99 -55 -99 -20 0 -21 -4 15 81 27 62 30 80 24 126 -5 43 -4 53 8 53 8 0 17 -10 21 -22z m286 12 c0 -5 -4 -10 -10 -10 -5 0 -10 5 -10 10 0 6 5 10 10 10 6 0 10 -4 10 -10z m75 -10 c4 -13 15 -20 32 -20 16 0 27 7 30 20 5 19 23 29 23 13 0 -23 -47 -135 -55 -134 -9 1 -23 35 -49 119 -4 13 -3 22 3 22 5 0 13 -9 16 -20z m155 10 c0 -5 -4 -10 -10 -10 -5 0 -10 5 -10 10 0 6 5 10 10 10 6 0 10 -4 10 -10z m5 -310 c4 -7 -452 -10 -1360 -10 -908 0 -1364 3 -1360 10 4 7 468 10 1360 10 892 0 1356 -3 1360 -10z m-51 -84 c34 -19 42 -30 53 -72 21 -81 22 -79 -61 -79 -67 0 -76 2 -80 20 -10 37 -6 45 24 45 38 0 31 21 -11 37 -21 8 -39 9 -56 2 -24 -9 -25 -13 -20 -59 8 -63 30 -97 70 -106 24 -5 34 -2 47 13 11 14 21 18 35 12 11 -4 32 -8 48 -8 35 -1 37 -32 3 -66 -20 -20 -33 -23 -97 -23 -65 0 -80 4 -120 29 -26 16 -54 44 -64 62 l-16 32 5 -32 c3 -18 9 -45 12 -60 5 -28 5 -28 -45 -28 l-50 0 -7 50 c-3 28 -12 61 -19 75 l-13 25 -12 -30 c-7 -17 -21 -50 -33 -75 -20 -44 -22 -45 -67 -45 l-47 0 -26 120 c-14 66 -29 135 -31 153 l-6 33 47 -3 47 -3 13 -69 c7 -38 14 -70 16 -72 2 -2 21 30 42 71 l38 75 47 0 46 0 14 -77 15 -78 5 52 c6 61 30 91 81 103 51 11 129 1 173 -24z m-1640 12 c3 -7 7 -25 10 -40 6 -24 10 -26 66 -30 51 -2 59 -1 54 12 -4 8 -9 27 -12 43 -4 26 -2 27 36 27 46 0 45 1 63 -100 15 -86 26 -71 28 38 l1 62 38 0 c36 0 38 -1 76 -80 22 -44 41 -78 43 -76 2 2 -1 23 -6 47 -6 24 -11 59 -11 77 0 31 2 32 39 32 38 0 39 -1 44 -42 2 -24 16 -88 31 -143 14 -55 26 -104 26 -110 0 -6 -28 -10 -66 -9 l-67 1 -22 49 c-12 27 -28 63 -35 79 l-14 30 -3 -30 c-2 -16 -5 -52 -8 -80 l-6 -50 -64 0 -64 0 -6 35 c-3 19 -11 54 -17 78 l-12 42 -64 0 c-63 0 -64 0 -58 -25 6 -25 6 -25 -64 -25 -56 0 -70 -3 -70 -15 0 -12 15 -15 79 -15 73 0 79 -2 85 -22 12 -48 12 -48 -104 -48 -60 0 -110 -3 -110 -7 0 -5 22 -22 48 -40 211 -144 374 -423 246 -423 -15 0 -24 -8 -28 -25 -5 -20 -13 -25 -36 -25 -20 0 -31 -6 -35 -19 -6 -21 -38 -36 -54 -27 -5 3 -14 -1 -21 -9 -7 -8 -27 -14 -44 -14 -23 1 -25 3 -8 6 12 2 27 13 32 24 13 24 9 24 -38 0 -80 -40 -153 -55 -272 -56 -101 0 -126 4 -204 29 -105 35 -214 103 -280 177 -84 93 -157 235 -170 329 l-6 45 20 -54 c11 -30 22 -56 24 -58 5 -5 67 93 92 148 l22 46 -32 16 -31 16 43 -5 c48 -5 72 3 51 17 -8 5 -24 9 -36 9 -13 0 -23 4 -23 10 0 5 14 7 30 5 17 -3 43 -7 58 -9 30 -5 61 8 49 20 -4 4 -33 13 -65 20 l-57 13 70 -2 c56 -2 70 1 70 13 0 8 -13 18 -30 22 -21 5 -13 6 24 4 51 -3 54 -2 65 25 12 34 36 38 36 7 0 -36 11 -44 85 -62 85 -21 231 -78 304 -118 29 -16 55 -27 57 -25 2 2 -2 31 -11 63 -8 32 -16 75 -19 94 -2 19 -7 42 -9 50 -3 8 -8 27 -11 43 l-6 27 130 0 c96 0 132 -3 134 -12z m609 -110 c15 -68 30 -136 33 -153 l6 -30 -51 0 -50 0 -22 95 c-12 52 -24 113 -27 135 -2 22 -9 48 -14 58 -8 15 -3 17 44 17 l53 0 28 -122z m103 72 c7 -25 15 -58 19 -74 6 -28 8 -26 40 45 l34 74 49 3 49 3 16 -73 c22 -99 46 -222 44 -224 -1 -1 -22 -4 -47 -5 l-45 -4 -12 74 c-7 41 -14 75 -16 77 -3 3 -20 -29 -54 -106 -20 -45 -21 -45 -69 -44 -53 2 -53 1 -68 99 -3 17 -14 67 -26 113 -11 46 -20 85 -20 88 0 3 21 4 47 2 47 -3 48 -3 59 -48z m319 38 c3 -7 12 -47 19 -88 8 -41 21 -102 30 -135 8 -33 15 -63 16 -66 0 -8 -92 1 -102 10 -4 3 -18 58 -31 121 -14 63 -28 127 -32 143 -7 27 -7 27 44 27 32 0 53 -5 56 -12z m-1862 -85 c-7 -2 -19 -2 -25 0 -7 3 -2 5 12 5 14 0 19 -2 13 -5z"/>
 <path d="M1400 1348 c-43 -46 -24 -155 32 -184 27 -14 32 -14 54 0 46 31 45 128 -2 177 -33 35 -56 37 -84 7z"/>
 <path d="M1858 1360 c-65 -38 -27 -202 47 -202 79 0 89 143 13 196 -26 18 -36 19 -60 6z"/>
 <path d="M2780 1321 c0 -5 3 -17 6 -26 5 -13 8 -14 15 -3 13 20 11 38 -6 38 -8 0 -15 -4 -15 -9z"/>
 <path d="M1092 913 c3 -15 16 -19 76 -21 67 -3 72 -1 72 18 0 18 -6 20 -76 20 -66 0 -75 -2 -72 -17z"/>
 <path d="M599 857 c7 -9 18 -17 24 -17 6 0 18 -6 26 -13 9 -7 34 -19 56 -26 264 -87 558 -328 620 -508 9 -25 19 -38 32 -38 15 0 18 8 17 45 0 58 -45 129 -145 229 -146 147 -357 266 -567 321 -24 6 -51 14 -60 17 -15 6 -15 5 -3 -10z"/>
 <path d="M650 773 c0 -13 24 -28 89 -56 164 -70 318 -185 423 -316 62 -77 101 -147 107 -191 2 -15 27 -12 41 5 19 22 -12 99 -71 177 -102 136 -277 271 -452 346 -126 55 -137 58 -137 35z"/>
 <path d="M600 732 c0 -4 39 -27 88 -51 224 -111 406 -270 480 -418 29 -58 30 -59 55 -41 16 12 16 16 -4 53 -90 171 -313 348 -557 444 -59 24 -62 24 -62 13z"/>
 <path d="M690 616 c0 -19 8 -27 35 -36 28 -9 35 -17 35 -36 0 -14 -4 -34 -10 -44 -8 -14 -3 -25 20 -50 28 -30 32 -31 53 -18 63 41 94 20 82 -57 -5 -34 -13 -48 -41 -67 -19 -12 -46 -43 -61 -68 -14 -25 -35 -52 -46 -61 -78 -63 155 -76 328 -19 84 28 88 31 75 64 -26 70 -124 186 -225 266 -61 48 -221 150 -237 150 -4 0 -8 -11 -8 -24z"/>
 <path d="M416 485 c-34 -23 -39 -24 -59 -10 -20 14 -77 21 -77 10 0 -3 12 -24 27 -48 37 -59 137 -161 194 -197 l47 -31 35 33 c46 44 59 71 59 125 0 113 -132 182 -226 118z"/>
 <path d="M1212 198 c-18 -18 -14 -38 8 -38 15 0 20 7 20 25 0 27 -9 32 -28 13z"/>
 </g>
<g id="layer116" fill="#fbe6d3" stroke="none">
 <path d="M0 750 l0 -750 1560 0 1560 0 0 750 0 750 -1560 0 -1560 0 0 -750z m749 636 c40 -21 67 -86 36 -86 -8 0 -15 5 -15 10 0 17 -47 60 -65 60 -30 0 -55 -38 -55 -82 0 -104 94 -178 129 -102 13 29 31 31 31 4 0 -27 -43 -70 -70 -70 -66 0 -120 72 -120 159 0 59 14 95 44 109 30 15 53 14 85 -2z m753 -13 c50 -45 68 -154 34 -205 -44 -67 -132 -55 -171 22 -50 101 -2 220 84 206 18 -3 42 -13 53 -23z m434 8 c39 -24 64 -76 64 -135 0 -58 -17 -94 -51 -112 -43 -22 -68 -17 -104 19 -62 62 -69 164 -15 219 33 33 63 35 106 9z m272 -1 c23 -14 32 -27 32 -47 0 -16 3 -38 6 -50 6 -22 3 -23 -45 -23 -39 0 -51 4 -51 15 0 10 10 15 31 15 27 0 30 3 27 27 -4 40 -51 62 -87 42 -22 -13 -26 -23 -29 -71 -4 -70 16 -112 59 -127 29 -10 34 -8 59 19 34 36 54 39 45 8 -9 -31 -51 -68 -78 -68 -32 0 -84 35 -101 69 -36 69 -28 164 17 196 30 21 76 19 115 -5z m383 10 c12 -7 19 -21 19 -40 0 -24 -6 -30 -35 -40 -37 -12 -46 -36 -19 -47 10 -4 22 1 30 12 15 21 30 14 21 -9 -8 -21 -54 -31 -72 -16 -28 23 -18 58 20 74 19 8 35 21 35 29 0 24 -29 28 -50 7 -20 -20 -20 -20 -20 0 0 10 8 24 18 29 22 13 29 13 53 1z m-2331 -4 c0 -7 30 -181 35 -203 4 -19 12 -23 40 -23 24 0 35 -5 35 -15 0 -12 -16 -15 -85 -15 -69 0 -85 3 -85 15 0 10 10 15 30 15 35 0 35 0 15 125 -18 110 -18 105 0 105 8 0 15 -2 15 -4z m290 -11 c0 -12 -14 -15 -66 -15 l-66 0 7 -37 c4 -21 9 -41 11 -45 3 -5 32 -8 65 -8 46 0 59 -3 59 -15 0 -12 -13 -15 -60 -15 -33 0 -60 -4 -60 -9 0 -5 3 -23 6 -40 6 -31 7 -31 70 -31 50 0 64 -3 64 -15 0 -12 -15 -15 -78 -15 l-78 0 -18 113 c-9 61 -19 120 -22 130 -5 15 3 17 80 17 70 0 86 -3 86 -15z m339 -45 l12 -60 56 0 c53 0 55 1 49 23 -18 64 -19 97 -3 97 16 0 26 -35 47 -165 13 -80 13 -95 -4 -95 -10 0 -17 17 -21 55 l-7 55 -58 0 -57 0 8 -42 c11 -60 11 -68 -5 -68 -16 0 -19 13 -41 145 -18 111 -18 115 -1 115 8 0 18 -22 25 -60z m240 8 c6 -29 14 -75 19 -103 l8 -50 34 100 c42 121 63 135 79 53 38 -191 39 -208 22 -208 -13 0 -20 22 -35 103 l-19 102 -34 -102 c-27 -79 -39 -103 -52 -103 -15 0 -21 18 -36 103 -10 56 -20 114 -22 130 -4 20 -1 27 10 27 11 0 19 -16 26 -52z m601 37 c0 -12 -13 -15 -55 -15 -54 0 -54 0 -50 -27 3 -16 12 -64 20 -108 18 -98 18 -95 1 -95 -18 0 -21 11 -41 132 -21 139 -26 128 55 128 56 0 70 -3 70 -15z m674 -7 c3 -13 6 -32 6 -44 0 -11 25 -59 55 -107 44 -71 51 -87 36 -87 -11 0 -34 24 -59 61 -40 58 -42 60 -51 38 -28 -75 -42 -99 -55 -99 -20 0 -21 -4 15 81 27 62 30 80 24 126 -5 43 -4 53 8 53 8 0 17 -10 21 -22z m286 12 c0 -5 -4 -10 -10 -10 -5 0 -10 5 -10 10 0 6 5 10 10 10 6 0 10 -4 10 -10z m75 -10 c4 -13 15 -20 32 -20 16 0 27 7 30 20 5 19 23 29 23 13 0 -23 -47 -135 -55 -134 -9 1 -23 35 -49 119 -4 13 -3 22 3 22 5 0 13 -9 16 -20z m155 10 c0 -5 -4 -10 -10 -10 -5 0 -10 5 -10 10 0 6 5 10 10 10 6 0 10 -4 10 -10z m10 -310 c0 -7 -462 -10 -1365 -10 -903 0 -1365 3 -1365 10 0 7 462 10 1365 10 903 0 1365 -3 1365 -10z m-56 -84 c34 -19 42 -30 53 -72 21 -81 22 -79 -61 -79 -67 0 -76 2 -80 20 -10 37 -6 45 24 45 38 0 31 21 -11 37 -21 8 -39 9 -56 2 -24 -9 -25 -13 -20 -59 8 -63 30 -97 70 -106 24 -5 34 -2 47 13 11 14 21 18 35 12 11 -4 32 -8 48 -8 35 -1 37 -32 3 -66 -20 -20 -33 -23 -97 -23 -65 0 -80 4 -120 29 -26 16 -54 44 -64 62 l-16 32 5 -32 c3 -18 9 -45 12 -60 5 -28 5 -28 -45 -28 l-50 0 -7 50 c-3 28 -12 61 -19 75 l-13 25 -12 -30 c-7 -17 -21 -50 -33 -75 -20 -44 -22 -45 -67 -45 l-47 0 -26 120 c-14 66 -29 135 -31 153 l-6 33 47 -3 47 -3 13 -69 c7 -38 14 -70 16 -72 2 -2 21 30 42 71 l38 75 47 0 46 0 14 -77 15 -78 5 52 c6 61 30 91 81 103 51 11 129 1 173 -24z m-1640 12 c3 -7 7 -25 10 -40 6 -24 10 -26 66 -30 51 -2 59 -1 54 12 -4 8 -9 27 -12 43 -4 26 -2 27 36 27 46 0 45 1 63 -100 15 -86 26 -71 28 38 l1 62 38 0 c36 0 38 -1 76 -80 22 -44 41 -78 43 -76 2 2 -1 23 -6 47 -6 24 -11 59 -11 77 0 31 2 32 39 32 38 0 39 -1 44 -42 2 -24 16 -88 31 -143 14 -55 26 -104 26 -110 0 -6 -28 -10 -66 -9 l-67 1 -22 49 c-12 27 -28 63 -35 79 l-14 30 -3 -30 c-2 -16 -5 -52 -8 -80 l-6 -50 -64 0 -64 0 -6 35 c-3 19 -11 54 -17 78 l-12 42 -64 0 c-63 0 -64 0 -58 -25 6 -25 6 -25 -64 -25 -56 0 -70 -3 -70 -15 0 -12 15 -15 79 -15 73 0 79 -2 85 -22 12 -47 11 -48 -93 -48 -55 0 -102 -4 -105 -8 -3 -5 21 -28 52 -52 87 -68 130 -109 179 -175 100 -132 122 -238 50 -238 -19 0 -27 -5 -29 -21 -2 -15 -11 -22 -34 -24 -22 -2 -35 -11 -42 -28 -9 -18 -19 -24 -42 -24 -16 0 -30 -4 -30 -10 0 -5 -19 -9 -42 -9 -30 2 -35 3 -15 6 15 2 32 13 37 24 13 23 13 23 -36 0 -88 -43 -155 -56 -279 -55 -104 0 -131 4 -200 28 -154 53 -262 135 -346 264 -55 84 -112 222 -107 261 3 21 7 15 22 -31 l19 -57 28 38 c15 22 41 66 58 99 34 67 36 62 -37 77 -17 4 -32 11 -32 17 0 5 12 7 27 4 79 -14 102 -16 107 -7 4 5 -19 15 -49 21 -30 6 -55 14 -55 17 0 3 41 2 90 -2 102 -8 124 7 38 24 -93 19 -94 20 -16 17 56 -2 78 1 82 10 6 16 -13 22 -96 34 -53 8 -47 8 43 4 l107 -4 11 31 c11 33 31 31 31 -4 0 -34 11 -43 70 -57 91 -21 221 -69 299 -111 40 -22 75 -38 78 -36 2 2 -3 31 -12 63 -8 32 -16 75 -19 94 -2 19 -7 42 -9 50 -3 8 -8 27 -11 43 l-6 27 130 0 c96 0 132 -3 134 -12z m609 -110 c15 -68 30 -136 33 -153 l6 -30 -51 0 -50 0 -22 95 c-12 52 -24 113 -27 135 -2 22 -9 48 -14 58 -8 15 -3 17 44 17 l53 0 28 -122z m103 72 c7 -25 15 -58 19 -74 6 -28 8 -26 40 45 l34 74 49 3 49 3 16 -73 c22 -99 46 -222 44 -224 -1 -1 -22 -4 -47 -5 l-45 -4 -12 74 c-7 41 -14 75 -16 77 -3 3 -20 -29 -54 -106 -20 -45 -21 -45 -69 -44 -53 2 -53 1 -68 99 -3 17 -14 67 -26 113 -11 46 -20 85 -20 88 0 3 21 4 47 2 47 -3 48 -3 59 -48z m319 38 c3 -7 12 -47 19 -88 8 -41 21 -102 30 -135 8 -33 15 -63 16 -66 0 -8 -92 1 -102 10 -4 3 -18 58 -31 121 -14 63 -28 127 -32 143 -7 27 -7 27 44 27 32 0 53 -5 56 -12z"/>
 <path d="M1400 1348 c-43 -46 -24 -155 32 -184 27 -14 32 -14 54 0 46 31 45 128 -2 177 -33 35 -56 37 -84 7z"/>
 <path d="M1858 1360 c-65 -38 -27 -202 47 -202 79 0 89 143 13 196 -26 18 -36 19 -60 6z"/>
 <path d="M2780 1321 c0 -5 3 -17 6 -26 5 -13 8 -14 15 -3 13 20 11 38 -6 38 -8 0 -15 -4 -15 -9z"/>
 <path d="M1092 913 c3 -15 16 -19 76 -21 67 -3 72 -1 72 18 0 18 -6 20 -76 20 -66 0 -75 -2 -72 -17z"/>
 <path d="M600 862 c1 -8 68 -52 79 -52 38 0 256 -108 341 -169 159 -114 247 -218 326 -389 1 -1 9 0 18 4 43 16 4 117 -85 218 -155 177 -348 295 -614 374 -36 11 -65 17 -65 14z"/>
 <path d="M656 782 c-11 -10 -6 -32 7 -32 22 0 193 -87 258 -131 33 -22 91 -67 129 -99 72 -63 186 -205 196 -246 7 -28 8 -28 37 -13 l22 12 -22 -24 c-15 -16 -19 -29 -14 -38 14 -23 41 -5 41 27 0 114 -211 335 -435 457 -66 36 -213 94 -219 87z"/>
 <path d="M600 732 c0 -4 46 -30 103 -59 202 -101 386 -260 457 -396 18 -34 34 -63 35 -65 1 -1 10 0 19 4 25 10 19 36 -25 105 -101 156 -292 301 -519 393 -71 29 -70 29 -70 18z"/>
 <path d="M690 619 c0 -14 11 -25 36 -35 36 -15 36 -16 30 -60 -7 -54 14 -94 49 -94 13 0 25 4 27 9 2 5 16 11 33 13 24 2 31 -2 39 -24 15 -44 -3 -99 -41 -123 -18 -11 -45 -43 -60 -72 -15 -28 -36 -54 -46 -57 -12 -3 -17 -12 -15 -23 8 -44 206 -36 351 14 69 24 77 29 71 47 -21 64 -119 185 -213 261 -67 54 -237 165 -253 165 -4 0 -8 -9 -8 -21z"/>
 <path d="M290 476 c0 -17 47 -85 94 -135 43 -46 152 -131 167 -131 5 0 9 16 9 36 0 19 4 33 9 30 10 -7 35 29 43 62 10 36 -10 89 -43 116 -39 34 -104 36 -143 5 -25 -20 -28 -20 -46 -4 -24 22 -90 37 -90 21z"/>
 <path d="M1218 199 c-22 -12 -24 -39 -3 -39 16 0 29 22 23 39 -2 6 -9 6 -20 0z"/>
 </g>
<g id="layer117" fill="#fffefe" stroke="none">
 <path d="M0 750 l0 -750 1560 0 1560 0 0 750 0 750 -1560 0 -1560 0 0 -750z m255 641 c4 -8 45 -213 45 -228 0 -2 16 -3 35 -3 29 0 35 -4 35 -20 0 -20 -5 -21 -82 -18 -70 3 -83 6 -86 21 -3 13 3 17 28 17 l32 0 -6 53 c-4 28 -13 80 -20 115 -7 34 -10 64 -8 67 8 8 20 6 27 -4z m295 5 c0 -2 3 -11 6 -20 5 -14 -4 -16 -65 -16 -39 0 -71 -4 -71 -9 0 -5 3 -23 6 -40 6 -31 7 -31 70 -31 57 0 64 -2 64 -20 0 -18 -7 -20 -60 -20 l-60 0 6 -27 c3 -16 7 -34 10 -40 2 -9 24 -13 63 -13 44 0 60 -4 65 -15 8 -22 -10 -26 -90 -23 l-69 3 -17 100 c-10 55 -20 117 -24 138 l-7 37 87 0 c47 0 86 -2 86 -4z m194 -6 c23 -8 56 -55 56 -80 0 -18 -28 -10 -35 10 -4 11 -17 28 -31 36 -22 15 -26 15 -48 0 -31 -20 -40 -47 -31 -101 9 -62 39 -97 79 -93 21 2 34 10 41 26 5 12 18 22 28 22 14 0 17 -5 12 -22 -10 -34 -52 -68 -84 -68 -63 0 -111 70 -111 160 0 97 47 139 124 110z m137 -21 c4 -13 10 -41 14 -61 l6 -38 53 0 53 0 -8 43 c-12 64 -11 87 6 87 8 0 17 -10 20 -22 12 -56 35 -206 35 -231 0 -48 -24 -25 -35 34 l-10 54 -53 3 -52 3 7 -60 c4 -41 2 -61 -5 -61 -6 0 -14 5 -17 10 -10 16 -53 254 -48 263 8 14 27 1 34 -24z m240 29 c0 -2 8 -50 17 -106 l17 -104 19 54 c72 213 79 212 120 -27 13 -77 8 -111 -13 -90 -5 6 -17 50 -25 99 -9 49 -17 90 -19 92 -2 2 -19 -40 -38 -94 -44 -124 -57 -126 -81 -12 -30 146 -33 190 -14 190 9 0 16 -1 17 -2z m373 -19 c97 -76 72 -259 -35 -259 -73 0 -137 119 -110 203 24 71 92 97 145 56z m239 1 c5 -18 0 -20 -54 -20 -56 0 -59 -1 -54 -22 22 -102 36 -191 31 -204 -13 -34 -33 7 -45 93 -7 49 -17 103 -21 122 -5 19 -7 38 -4 43 3 4 36 8 73 8 60 0 69 -2 74 -20z m216 -5 c17 -15 37 -47 46 -76 50 -148 -98 -248 -177 -120 -26 42 -31 133 -9 173 27 52 93 62 140 23z m271 -1 c10 -11 21 -43 25 -72 l7 -53 -48 3 c-37 2 -50 7 -52 21 -3 13 3 17 28 17 29 0 32 3 26 23 -3 12 -6 25 -6 29 0 3 -14 11 -32 17 -25 9 -36 8 -55 -4 -42 -28 -28 -153 21 -187 24 -17 66 -8 82 17 18 28 44 33 44 9 0 -27 -56 -74 -88 -74 -108 0 -167 213 -75 270 26 15 102 5 123 -16z m184 4 c3 -13 6 -34 6 -46 0 -13 25 -64 55 -113 30 -49 50 -91 45 -94 -16 -10 -29 3 -70 66 l-38 59 -25 -63 c-14 -35 -32 -63 -41 -65 -22 -5 -20 9 15 93 27 65 30 81 24 130 -6 45 -5 55 8 55 8 0 17 -10 21 -22z m187 12 c12 -7 19 -21 19 -41 0 -25 -6 -33 -35 -45 -38 -15 -45 -31 -19 -41 10 -4 22 1 30 12 16 21 30 14 20 -10 -8 -21 -31 -29 -61 -21 -20 5 -25 13 -25 37 0 25 6 32 35 45 37 15 46 38 20 48 -9 3 -23 -3 -32 -14 -21 -24 -33 -26 -33 -6 0 15 36 46 53 46 5 0 17 -5 28 -10z m179 -32 c0 -4 11 -8 23 -8 16 0 28 9 37 28 8 17 14 22 18 13 6 -18 -40 -151 -53 -151 -10 0 -55 126 -55 153 1 13 30 -21 30 -35z m146 15 c-10 -10 -19 5 -10 18 6 11 8 11 12 0 2 -7 1 -15 -2 -18z m-226 7 c0 -5 -4 -10 -10 -10 -5 0 -10 5 -10 10 0 6 5 10 10 10 6 0 10 -4 10 -10z m238 -312 c-4 -10 -285 -13 -1363 -13 -1078 0 -1359 3 -1362 13 -4 9 273 12 1362 12 1089 0 1366 -3 1363 -12z m-58 -77 c40 -20 56 -47 65 -111 l7 -45 -74 0 c-76 0 -88 5 -88 43 0 18 6 22 30 22 21 0 28 4 24 14 -3 8 -13 16 -22 19 -9 3 -24 8 -32 11 -9 4 -25 -2 -39 -15 -19 -18 -22 -28 -16 -56 3 -19 11 -45 17 -58 19 -43 88 -56 102 -20 3 9 12 12 22 8 14 -5 25 -7 72 -12 20 -2 14 -40 -12 -66 -20 -20 -33 -23 -97 -23 -87 0 -137 22 -176 77 -24 35 -25 35 -19 7 20 -87 23 -81 -33 -81 -39 0 -51 4 -51 15 0 8 -9 42 -19 75 l-18 60 -13 -30 c-49 -120 -50 -120 -100 -120 l-47 0 -27 115 c-14 63 -29 132 -31 153 l-5 38 47 -3 46 -3 16 -69 c18 -76 23 -76 56 4 27 66 33 70 85 70 l48 0 7 -46 c3 -26 10 -56 15 -68 7 -17 9 -15 9 15 1 45 32 86 74 98 44 12 135 3 177 -18z m-1627 -23 c9 -36 9 -36 68 -40 50 -2 58 -1 53 12 -4 8 -9 27 -12 43 -4 26 -2 27 36 27 45 0 44 3 63 -100 11 -53 14 -60 20 -40 4 14 7 51 8 83 l1 57 40 0 39 0 37 -80 c21 -44 39 -78 41 -76 2 2 -3 32 -11 66 -8 35 -12 69 -9 77 3 8 21 13 44 13 33 0 39 -3 40 -22 2 -38 7 -58 33 -163 14 -55 26 -104 26 -110 0 -6 -28 -10 -67 -9 l-67 1 -22 49 c-12 27 -28 63 -35 79 l-14 30 -2 -40 c-2 -22 -5 -58 -8 -80 l-5 -40 -65 0 -64 0 -18 78 -17 77 -64 0 c-63 0 -64 0 -58 -25 6 -25 6 -25 -64 -25 -56 0 -70 -3 -70 -15 0 -12 15 -15 79 -15 73 0 79 -2 85 -22 12 -47 11 -48 -92 -48 -54 0 -102 -3 -105 -6 -4 -4 15 -22 41 -42 70 -52 182 -169 230 -238 50 -74 65 -149 37 -178 -10 -10 -26 -15 -36 -13 -13 4 -19 0 -19 -12 0 -23 -20 -41 -45 -41 -11 0 -26 -9 -33 -20 -7 -11 -21 -20 -31 -20 -10 0 -31 -6 -46 -14 -19 -10 -36 -11 -58 -5 -22 6 -46 4 -86 -9 -79 -24 -283 -23 -366 2 -116 36 -195 83 -280 170 -118 120 -188 254 -200 384 -6 64 3 53 30 -40 9 -32 19 -58 21 -58 6 0 57 82 84 136 l25 52 -48 11 c-27 6 -74 14 -105 18 l-57 7 40 7 c22 4 71 2 108 -3 117 -16 108 -3 -13 19 l-115 21 79 1 c44 1 108 -4 144 -10 43 -8 67 -8 74 -1 7 7 -14 14 -64 21 -40 7 -93 16 -118 20 l-45 9 60 0 c33 0 87 -3 120 -7 40 -5 62 -4 67 3 4 6 5 12 2 15 -2 2 -55 10 -117 17 l-112 13 143 -3 c129 -4 142 -3 142 13 0 18 18 41 32 41 4 0 8 -9 8 -21 0 -31 18 -59 39 -59 38 0 220 -64 312 -110 l96 -48 -13 65 c-8 35 -16 79 -18 96 -2 18 -9 45 -15 60 -23 58 -23 58 121 55 l132 -3 9 -37z m580 15 c2 -16 16 -81 31 -145 14 -65 26 -121 26 -125 0 -5 -22 -8 -49 -8 l-50 0 -26 110 c-14 61 -27 124 -30 142 -2 18 -6 37 -10 43 -4 6 14 10 48 10 52 0 55 -1 60 -27z m115 10 c6 -10 13 -38 17 -63 7 -45 24 -87 25 -63 0 7 14 42 31 78 l30 65 49 0 48 0 22 -97 c11 -54 26 -120 32 -148 6 -27 10 -52 10 -54 -1 -2 -23 -4 -49 -5 -46 -1 -47 0 -55 34 -4 19 -10 53 -13 74 -3 22 -7 41 -8 42 -2 2 -18 -32 -37 -74 l-34 -77 -50 1 c-55 2 -59 7 -70 94 -3 19 -14 71 -25 115 -12 44 -21 83 -21 88 0 4 20 7 45 7 32 0 47 -5 53 -17z m340 -58 c8 -38 20 -92 27 -120 8 -27 16 -64 20 -80 l6 -30 -51 1 c-28 1 -53 4 -55 5 -2 2 -15 60 -29 129 -14 69 -29 135 -32 148 -6 22 -5 23 47 20 l54 -3 13 -70z"/>
 <path d="M1403 1344 c-22 -23 -25 -32 -21 -80 5 -64 36 -104 79 -104 73 0 79 144 8 194 -31 21 -35 21 -66 -10z"/>
 <path d="M1853 1346 c-24 -21 -28 -31 -26 -69 2 -72 35 -117 83 -117 76 0 81 143 8 194 -29 21 -32 20 -65 -8z"/>
 <path d="M2784 1314 c3 -9 6 -21 6 -27 0 -16 20 14 20 31 0 6 -7 12 -16 12 -11 0 -14 -5 -10 -16z"/>
 <path d="M1092 913 c3 -15 16 -19 76 -21 67 -3 72 -1 72 18 0 18 -6 20 -76 20 -66 0 -75 -2 -72 -17z"/>
 <path d="M615 850 c3 -5 11 -10 17 -10 6 0 19 -6 27 -14 9 -7 41 -21 71 -31 84 -27 226 -103 311 -167 95 -71 226 -209 259 -271 26 -48 36 -53 54 -24 17 27 -19 82 -129 192 -143 145 -280 227 -499 301 -108 37 -121 39 -111 24z"/>
 <path d="M655 770 c-3 -5 7 -15 22 -21 162 -67 300 -154 406 -258 73 -71 167 -194 167 -220 0 -16 25 -14 40 4 18 22 -27 93 -119 189 -103 107 -214 187 -345 251 -120 57 -161 71 -171 55z"/>
 <path d="M699 680 c52 -28 126 -71 165 -97 127 -83 279 -246 320 -343 11 -27 14 -28 30 -17 17 13 17 16 -9 68 -54 107 -260 289 -425 373 -49 26 -154 66 -169 66 -3 0 36 -23 88 -50z"/>
 <path d="M697 624 c-12 -12 6 -33 33 -39 35 -8 42 -24 30 -66 -7 -25 -6 -39 6 -56 21 -33 39 -38 66 -19 34 24 63 20 77 -10 20 -45 4 -90 -49 -135 -26 -22 -55 -58 -65 -79 -10 -22 -26 -42 -36 -45 -36 -12 -21 -34 28 -41 128 -19 373 31 373 76 0 31 -75 132 -157 211 -73 71 -186 155 -260 193 -36 18 -37 18 -46 10z"/>
 <path d="M290 474 c0 -18 97 -138 142 -176 54 -45 112 -88 120 -88 3 0 5 18 6 40 2 38 0 40 -28 40 -62 0 -110 44 -110 102 0 30 -70 88 -104 88 -14 0 -26 -3 -26 -6z"/>
 <path d="M1352 308 c-7 -7 -12 -23 -12 -36 0 -18 4 -23 16 -18 9 3 18 6 20 6 2 0 4 14 4 30 0 32 -9 37 -28 18z"/>
 <path d="M1288 243 c-18 -20 -24 -43 -10 -43 19 1 33 19 30 40 -3 22 -3 22 -20 3z"/>
 <path d="M1210 185 c-7 -9 -10 -18 -7 -21 10 -11 37 5 37 21 0 19 -14 19 -30 0z"/>
 <path d="M1143 153 c-21 -8 -15 -22 7 -16 11 3 20 9 20 14 0 10 -8 10 -27 2z"/>
 </g>

</svg>